<?xml version="1.0" encoding="UTF-8" standalone="no"?>
<!DOCTYPE svg PUBLIC "-//W3C//DTD SVG 1.1//EN" "http://www.w3.org/Graphics/SVG/1.1/DTD/svg11.dtd">
<svg version="1.1" xmlns="http://www.w3.org/2000/svg" xmlns:xlink="http://www.w3.org/1999/xlink" preserveAspectRatio="xMidYMid meet" viewBox="0 0 640 640" width="640" height="640"><defs><path d="M74.73 16.09C52.06 21.17 38.46 46.61 44.36 72.9C50.25 99.19 73.4 116.38 96.07 111.3C118.74 106.22 132.34 80.79 126.45 54.5C120.55 28.2 97.4 11.01 74.73 16.09Z" id="e6nCGc4akI"></path><path d="M161.24 113.56L143.11 32.7L92.67 128.93L161.24 113.56ZM121.97 105.5L138.28 74.46L144.12 100.53L143.96 100.57L121.97 105.5Z" id="cbr5VAcwKq"></path><path d="M93.05 130.63C92.4 130.78 91.82 130.51 91.33 129.82C91.04 129.29 90.87 128.54 91.23 127.86C96.28 118.24 136.63 41.26 141.68 31.64C142.04 30.96 142.69 30.82 143.22 30.89C143.75 30.97 144.41 31.62 144.58 32.38C146.39 40.46 160.89 105.14 162.71 113.23C163.08 114.14 162.6 115.04 161.78 115.22C148.04 118.3 99.92 129.09 93.05 130.63ZM159.35 112L142.58 37.19L95.83 126.24L159.35 112ZM122.39 107.39C121.74 107.53 121.17 107.26 120.67 106.58C120.38 106.05 120.21 105.29 120.58 104.62C122.21 101.51 135.25 76.69 136.88 73.58C137.24 72.91 137.9 72.76 138.43 72.84C138.96 72.92 139.62 73.57 139.79 74.32C140.37 76.93 145.05 97.78 145.63 100.39C145.8 101.15 145.36 102.24 144.38 102.46C139.98 103.44 124.59 106.89 122.39 107.39ZM142.27 99.16L137.79 79.13L125.17 102.99L142.27 99.16Z" id="e5vY5WHP5"></path><path d="M141.06 51.02L153.81 107.88L105.6 118.69L141.06 51.02Z" id="aIVebVKj"></path><path d="M121.97 105.5L138.28 74.46L144.12 100.53L143.96 100.57L121.97 105.5Z" id="g3NRQPccix"></path><path d="M122.39 107.39C121.74 107.53 121.17 107.26 120.67 106.58C120.38 106.05 120.21 105.29 120.58 104.62C122.21 101.51 135.25 76.69 136.88 73.58C137.24 72.91 137.9 72.76 138.43 72.84C138.96 72.92 139.62 73.57 139.79 74.32C140.37 76.93 145.05 97.78 145.63 100.39C145.8 101.15 145.36 102.24 144.38 102.46C139.98 103.44 124.59 106.89 122.39 107.39ZM142.27 99.16L137.79 79.13L125.17 102.99L142.27 99.16Z" id="a41VTXUzwt"></path><path d="M61.29 33.98C58.52 34.6 56.84 37.76 57.56 40.97C58.88 46.87 69.45 94.02 70.77 99.91C71.49 103.12 74.36 105.26 77.13 104.64C81.02 103.76 112.16 96.78 116.06 95.91C118.83 95.29 120.51 92.13 119.79 88.92C119.12 85.92 115.76 70.94 109.71 43.96L88.17 27.96C72.04 31.57 63.08 33.58 61.29 33.98Z" id="eWru5jEle"></path><path d="M77.51 106.34C73.93 107.14 70.23 104.4 69.3 100.24C67.98 94.35 57.41 47.19 56.09 41.3C55.16 37.14 57.33 33.09 60.91 32.28C63.6 31.68 85.1 26.86 87.79 26.26C88.11 26.19 88.64 26.27 89.05 26.57C91.21 28.17 108.45 40.97 110.6 42.57C111.01 42.88 111.26 43.22 111.39 43.78C112.39 48.28 120.46 84.25 121.46 88.74C122.19 92.75 120.02 96.81 116.44 97.61C108.65 99.35 81.4 105.46 77.51 106.34ZM59.14 40.42C60.46 46.31 71.03 93.46 72.35 99.36C72.86 101.62 74.87 102.96 76.66 102.56C80.56 101.69 111.7 94.7 115.59 93.83C117.55 93.39 118.59 91.18 118.12 89.1C117.46 86.16 114.18 71.49 108.26 45.08L87.73 29.84L61.67 35.68C59.67 37.45 58.83 39.03 59.14 40.42Z" id="c5ShzjtrJ"></path><path d="M91.39 43.11C92.07 46.13 94.74 48.11 97.34 47.53C98.09 47.36 101.84 46.52 108.58 45.01L88.43 29.89C90.21 37.82 91.19 42.23 91.39 43.11Z" id="h7iC8YvD2"></path><path d="M81.45 79.66C80.71 79.11 74.8 74.72 74.06 74.17C73.24 73.56 73.03 72.62 73.51 71.72C74 70.82 74.81 70.63 75.63 71.24C76 71.52 77.85 72.89 81.17 75.36C82.8 67.97 83.7 63.87 83.89 63.04C84.08 62.4 84.49 61.92 84.98 61.81C86.75 61.41 100.96 58.23 102.73 57.83C103.55 57.64 104.37 58.25 104.58 59.2C104.79 60.14 104.31 61.05 103.49 61.23C102.37 61.48 96.78 62.73 86.72 64.99C84.95 73.12 83.97 77.64 83.77 78.55C83.73 79.15 83.29 79.45 82.84 79.75C82.72 79.97 82.72 79.97 82.72 79.97C82.39 80.04 81.86 79.96 81.45 79.66Z" id="avQmBPxvq"></path><path d="M90.51 70.49C89.69 69.88 89.48 68.93 89.96 68.03C90.45 67.13 91.26 66.95 92.08 67.56C92.84 68.12 98.92 72.63 99.68 73.19C100.5 73.8 100.71 74.75 100.23 75.65C99.74 76.55 98.77 76.77 98.11 76.12C96.59 75 91.27 71.05 90.51 70.49Z" id="biLvMbqOq"></path><path d="M91.53 75.02C91.98 74.19 95.54 67.51 95.99 66.68C96.47 65.78 97.29 65.6 98.11 66.2C98.93 66.81 99.14 67.76 98.66 68.66C98.21 69.49 94.65 76.17 94.2 77C93.72 77.9 92.9 78.09 92.08 77.48C91.26 76.87 91.05 75.92 91.53 75.02Z" id="bb2h5WOit"></path><path d="M64.96 48.04C64.14 48.23 63.32 47.62 63.11 46.67C62.9 45.73 63.38 44.82 64.19 44.64C66.1 44.22 81.35 40.8 83.25 40.37C84.07 40.19 84.89 40.8 85.1 41.74C85.31 42.69 84.83 43.59 84.01 43.77C80.2 44.63 66.86 47.62 64.96 48.04Z" id="b6ufQGTtg"></path><path d="M67.07 56.7C66.25 56.88 65.43 56.27 65.22 55.32C65.01 54.38 65.49 53.48 66.3 53.3C67.48 53.03 76.86 50.93 78.03 50.67C78.85 50.48 79.67 51.09 79.88 52.04C80.09 52.98 79.61 53.88 78.79 54.07C76.45 54.59 68.24 56.43 67.07 56.7Z" id="b1llRlRjOm"></path><path d="M87.2 89.28C87.2 89.28 87.2 89.28 87.2 89.28C87.68 91.44 87.95 92.63 88.01 92.87C88.01 92.87 88.01 92.87 88.01 92.87C86.15 93.29 85.12 93.52 84.91 93.57C84.91 93.57 84.91 93.57 84.91 93.57C84.43 91.41 84.16 90.22 84.11 89.98C84.11 89.98 84.11 89.98 84.11 89.98C85.96 89.56 87 89.33 87.2 89.28Z" id="d60CoNDaMx"></path><path d="M95.35 87.46C95.35 87.46 95.35 87.46 95.35 87.46C95.83 89.61 96.1 90.81 96.15 91.05C96.15 91.05 96.15 91.05 96.15 91.05C94.29 91.46 93.26 91.69 93.06 91.74C93.06 91.74 93.06 91.74 93.06 91.74C92.57 89.59 92.3 88.39 92.25 88.15C92.25 88.15 92.25 88.15 92.25 88.15C94.11 87.74 95.14 87.5 95.35 87.46Z" id="btffo1Vyr"></path><path d="M103.65 85.6C103.65 85.6 103.65 85.6 103.65 85.6C104.14 87.75 104.4 88.95 104.46 89.18C104.46 89.18 104.46 89.18 104.46 89.18C102.6 89.6 101.57 89.83 101.36 89.88C101.36 89.88 101.36 89.88 101.36 89.88C100.88 87.72 100.61 86.53 100.56 86.29C100.56 86.29 100.56 86.29 100.56 86.29C102.41 85.87 103.45 85.64 103.65 85.6Z" id="f1txrm9ea4"></path><path d="M544.14 355.63C542.41 355.02 541.6 352.83 542.34 350.75C545.27 342.46 568.77 276.12 571.71 267.82C572.45 265.74 574.45 264.55 576.18 265.17C581.38 267.01 622.95 281.73 628.14 283.57C629.87 284.18 630.68 286.37 629.94 288.45C627.01 296.74 603.51 363.09 600.57 371.38C599.83 373.46 597.83 374.65 596.1 374.04C585.71 370.36 549.33 357.47 544.14 355.63Z" id="bt12lFotd"></path><path d="M621.87 281.35C623.6 281.96 624.41 284.15 623.67 286.23C620.74 294.52 597.24 360.86 594.3 369.16C593.56 371.24 591.56 372.43 589.83 371.82C590.46 372.04 595.47 373.82 596.1 374.04C597.83 374.65 599.83 373.46 600.57 371.38C603.51 363.09 627.01 296.74 629.94 288.45C630.68 286.37 629.87 284.18 628.14 283.57C626.89 283.13 622.5 281.57 621.87 281.35Z" id="fAIIWGb5S"></path><path d="M619.28 45.1C619.37 45.21 619.47 45.29 619.58 45.37C620.16 45.75 620.94 45.72 621.5 45.25C626.42 41.02 627.47 36.6 627.51 36.42C627.71 35.58 627.17 34.75 626.32 34.57C625.48 34.39 624.63 34.92 624.44 35.76C624.44 35.8 623.52 39.41 619.45 42.9C618.79 43.47 618.71 44.45 619.28 45.1Z" id="fGsZPO8M"></path><path d="M572.48 292.25C571.61 291.94 571.21 290.85 571.58 289.81C572.11 288.32 576.32 276.42 576.85 274.93C577.22 273.89 578.22 273.3 579.08 273.61C583.23 275.07 616.37 286.81 620.52 288.28C621.38 288.59 621.79 289.68 621.42 290.72C620.89 292.21 616.68 304.11 616.15 305.6C615.78 306.64 614.78 307.23 613.91 306.93C605.63 303.99 576.62 293.72 572.48 292.25Z" id="bJeLQkZvd"></path><path d="M609.44 302.79C607.99 302.27 607.31 300.43 607.93 298.68C608.2 297.9 610.4 291.7 610.67 290.92C611.29 289.17 612.98 288.17 614.44 288.68C614.6 288.74 615.89 289.2 616.05 289.25C617.51 289.77 618.19 291.61 617.57 293.37C617.3 294.14 615.1 300.34 614.82 301.12C614.2 302.87 612.51 303.88 611.06 303.36C610.73 303.25 609.6 302.85 609.44 302.79ZM613.91 290.19C613.14 289.92 612.25 290.45 611.93 291.37C611.65 292.14 609.46 298.35 609.18 299.12C608.85 300.04 609.21 301.01 609.98 301.28C610.14 301.34 611.43 301.8 611.59 301.85C612.36 302.12 613.24 301.6 613.57 300.68C613.84 299.9 616.04 293.7 616.32 292.92C616.64 292 616.29 291.03 615.52 290.76C615.2 290.65 614.23 290.3 613.91 290.19Z" id="a2seutKsh1"></path><path d="M564.85 313.97C563.98 313.66 563.58 312.57 563.95 311.53C564.38 310.33 567.8 300.68 568.22 299.47C568.59 298.43 569.59 297.83 570.46 298.14C571.46 298.5 579.49 301.34 580.49 301.69C581.35 302 581.76 303.09 581.39 304.13C580.96 305.34 577.54 314.99 577.12 316.19C576.75 317.24 575.75 317.83 574.88 317.52C572.87 316.81 565.85 314.33 564.85 313.97Z" id="d58SODujf"></path><path d="M573.2 308.33C575.01 306.9 576.01 306.1 576.22 305.94C576.54 305.68 576.65 305.19 576.47 304.84C576.28 304.49 575.86 304.42 575.54 304.68C575.36 304.82 574.46 305.53 572.85 306.8C572.41 304.8 572.16 303.68 572.11 303.46C572.02 303.06 571.65 302.85 571.28 303C570.92 303.16 570.7 303.61 570.79 304.02C570.84 304.27 571.12 305.52 571.63 307.78C569.81 309.21 568.81 310.01 568.61 310.17C568.28 310.43 568.17 310.92 568.36 311.27C568.43 311.41 568.55 311.51 568.68 311.56C568.87 311.62 569.09 311.59 569.29 311.43C569.46 311.29 570.36 310.58 571.97 309.31C572.41 311.31 572.66 312.42 572.71 312.65C572.77 312.89 572.92 313.06 573.11 313.12C573.24 313.17 573.39 313.17 573.54 313.11C573.9 312.95 574.13 312.5 574.04 312.09C573.92 311.59 573.64 310.34 573.2 308.33Z" id="g14UIfroum"></path><path d="M580.52 319.52C579.66 319.22 579.25 318.12 579.62 317.08C580.05 315.88 583.47 306.23 583.9 305.02C584.26 303.98 585.27 303.38 586.13 303.69C587.13 304.05 595.16 306.89 596.16 307.24C597.03 307.55 597.43 308.64 597.06 309.68C596.63 310.89 593.22 320.54 592.79 321.75C592.42 322.79 591.42 323.38 590.55 323.08C588.55 322.37 581.53 319.88 580.52 319.52Z" id="b47YbgBZ3Z"></path><path d="M584.31 317.79C584.08 317.48 584.13 316.98 584.42 316.67C585.1 315.96 590.54 310.26 591.22 309.54C591.51 309.23 591.94 309.23 592.17 309.54C592.41 309.84 592.36 310.34 592.07 310.65C591.39 311.36 585.95 317.07 585.27 317.78C585.07 317.99 584.8 318.06 584.58 317.98C584.48 317.95 584.39 317.88 584.31 317.79Z" id="c2JTYoB1bL"></path><path d="M586.31 309.19C586.33 309.13 586.51 308.61 586.54 308.54C586.73 308 587.25 307.69 587.7 307.85C588.15 308.01 588.35 308.58 588.16 309.12C588.14 309.18 587.96 309.7 587.93 309.77C587.74 310.31 587.22 310.62 586.77 310.46C586.32 310.3 586.11 309.73 586.31 309.19Z" id="dSs3CDYjc"></path><path d="M588.32 318.21C588.35 318.14 588.53 317.62 588.55 317.56C588.75 317.02 589.27 316.71 589.71 316.87C590.16 317.03 590.37 317.59 590.18 318.13C590.16 318.2 589.97 318.72 589.95 318.78C589.76 319.32 589.24 319.63 588.79 319.47C588.34 319.32 588.13 318.75 588.32 318.21Z" id="d2DkoARaxG"></path><path d="M558.17 332.82C557.31 332.51 556.91 331.42 557.27 330.38C557.7 329.17 561.12 319.52 561.55 318.32C561.92 317.28 562.92 316.68 563.78 316.99C564.78 317.34 572.81 320.18 573.81 320.54C574.68 320.85 575.08 321.94 574.71 322.98C574.28 324.19 570.87 333.84 570.44 335.04C570.07 336.08 569.07 336.68 568.2 336.37C566.2 335.66 559.18 333.17 558.17 332.82Z" id="a13NZoXSac"></path><path d="M566.78 326.19C567.52 324.1 567.94 322.93 568.02 322.7C568.17 322.29 568 321.85 567.66 321.73C567.31 321.6 566.91 321.84 566.76 322.26C566.68 322.49 566.27 323.65 565.53 325.74C563.79 325.13 562.83 324.78 562.63 324.72C562.29 324.59 561.89 324.83 561.74 325.25C561.59 325.66 561.75 326.1 562.1 326.22C562.29 326.29 563.26 326.63 565 327.25C564.26 329.34 563.84 330.5 563.76 330.73C563.61 331.15 563.78 331.59 564.12 331.71C564.47 331.83 564.87 331.59 565.02 331.18C565.1 330.95 565.51 329.78 566.25 327.69C567.99 328.31 568.95 328.65 569.15 328.72C569.49 328.84 569.89 328.6 570.04 328.19C570.19 327.77 570.03 327.33 569.68 327.21C569.3 327.08 568.33 326.73 566.78 326.19Z" id="eBKmgGYkB"></path><path d="M573.85 338.37C572.98 338.06 572.58 336.97 572.95 335.93C573.37 334.72 576.79 325.07 577.22 323.87C577.59 322.83 578.59 322.23 579.45 322.54C580.46 322.89 588.48 325.74 589.49 326.09C590.35 326.4 590.75 327.49 590.39 328.53C589.96 329.74 586.54 339.39 586.11 340.59C585.74 341.63 584.74 342.23 583.88 341.92C581.87 341.21 574.85 338.73 573.85 338.37Z" id="c4cWmkIKFG"></path><path d="M577.93 331.83C577.58 331.71 577.42 331.27 577.57 330.86C577.72 330.44 578.12 330.2 578.46 330.32C579.12 330.56 584.39 332.42 585.04 332.65C585.39 332.78 585.55 333.21 585.4 333.63C585.26 334.05 584.86 334.28 584.51 334.16C583.19 333.7 578.59 332.06 577.93 331.83Z" id="b2Lead0D1"></path><path d="M596.2 325.07C595.33 324.77 594.93 323.68 595.3 322.63C595.72 321.43 599.14 311.78 599.57 310.57C599.94 309.53 600.94 308.94 601.8 309.24C602.81 309.6 610.83 312.44 611.83 312.8C612.7 313.1 613.1 314.2 612.73 315.24C612.31 316.44 608.89 326.09 608.46 327.3C608.09 328.34 607.09 328.93 606.23 328.63C604.22 327.92 597.2 325.43 596.2 325.07Z" id="a2GyMYomF7"></path><path d="M601.57 323.64C600.48 323.26 599.97 321.88 600.44 320.58C600.62 320.06 602.08 315.92 602.27 315.41C602.73 314.1 603.99 313.35 605.08 313.74C605.18 313.77 606.04 314.08 606.15 314.12C607.24 314.5 607.75 315.88 607.28 317.18C607.14 317.6 606.74 317.84 606.39 317.72C606.04 317.59 605.88 317.16 606.03 316.74C606.2 316.26 606.01 315.76 605.62 315.62C605.51 315.59 604.65 315.28 604.54 315.24C604.15 315.1 603.69 315.38 603.52 315.85C603.34 316.37 601.87 320.5 601.69 321.02C601.52 321.5 601.71 322 602.1 322.14C602.21 322.17 603.07 322.48 603.18 322.52C603.57 322.66 604.03 322.38 604.2 321.91C604.35 321.49 604.75 321.25 605.09 321.38C605.44 321.5 605.6 321.94 605.45 322.35C604.99 323.66 603.73 324.41 602.64 324.02C602.43 323.95 601.68 323.68 601.57 323.64Z" id="azspsnrG2"></path><path d="M582.84 362.77C581.98 362.46 581.58 361.37 581.94 360.33C583.04 357.24 591.8 332.51 592.89 329.42C593.26 328.38 594.26 327.78 595.13 328.09C596.13 328.45 604.16 331.29 605.16 331.64C606.02 331.95 606.43 333.04 606.06 334.08C604.96 337.17 596.21 361.9 595.11 364.99C594.74 366.03 593.74 366.63 592.88 366.32C590.87 365.61 583.85 363.12 582.84 362.77Z" id="c12zYLNhlX"></path><path d="M590.82 345.23C590.48 345.11 590.32 344.67 590.46 344.26C590.61 343.84 591.01 343.6 591.36 343.72C592.02 343.96 597.28 345.82 597.94 346.05C598.28 346.18 598.44 346.61 598.3 347.03C598.15 347.45 597.75 347.68 597.4 347.56C596.09 347.1 591.48 345.46 590.82 345.23Z" id="h4hp6ctwI"></path><path d="M551.5 351.67C550.63 351.36 550.23 350.27 550.6 349.23C551.03 348.02 554.44 338.37 554.87 337.16C555.24 336.12 556.24 335.53 557.11 335.83C558.11 336.19 566.13 339.03 567.14 339.39C568 339.69 568.4 340.79 568.04 341.83C567.61 343.03 564.19 352.68 563.76 353.89C563.39 354.93 562.39 355.53 561.53 355.22C559.52 354.51 552.5 352.02 551.5 351.67Z" id="c3b7AWRuBN"></path><path d="M556.92 350.33C555.84 349.94 555.33 348.57 555.79 347.26C555.97 346.74 557.44 342.61 557.62 342.09C558.08 340.79 559.34 340.04 560.43 340.42C560.54 340.46 561.4 340.76 561.51 340.8C562.59 341.19 563.1 342.56 562.64 343.87C562.45 344.39 560.99 348.52 560.81 349.04C560.34 350.34 559.08 351.09 558 350.71C557.78 350.63 557.03 350.37 556.92 350.33ZM559.9 341.93C559.5 341.79 559.04 342.06 558.88 342.54C558.69 343.05 557.23 347.19 557.04 347.71C556.88 348.18 557.06 348.68 557.46 348.82C557.56 348.86 558.42 349.16 558.53 349.2C558.93 349.34 559.38 349.07 559.55 348.59C559.74 348.08 561.2 343.94 561.38 343.42C561.55 342.95 561.37 342.45 560.97 342.31C560.76 342.23 560.11 342 559.9 341.93Z" id="chiezyX"></path><path d="M567.17 357.22C566.31 356.91 565.9 355.82 566.27 354.78C566.7 353.57 570.12 343.92 570.54 342.72C570.91 341.67 571.91 341.08 572.78 341.39C573.78 341.74 581.81 344.58 582.81 344.94C583.68 345.25 584.08 346.34 583.71 347.38C583.28 348.58 579.86 358.23 579.44 359.44C579.07 360.48 578.07 361.08 577.2 360.77C575.2 360.06 568.17 357.57 567.17 357.22Z" id="bJd0B0yj"></path><path d="M575.28 347.17C575.31 347.11 575.49 346.59 575.51 346.52C575.71 345.98 576.22 345.67 576.67 345.83C577.12 345.99 577.33 346.56 577.14 347.1C577.12 347.16 576.93 347.69 576.91 347.75C576.72 348.29 576.2 348.6 575.75 348.44C575.3 348.28 575.09 347.71 575.28 347.17Z" id="aiWo34fZG"></path><path d="M572.49 355.06C572.51 354.99 572.7 354.47 572.72 354.41C572.91 353.87 573.43 353.56 573.88 353.72C574.33 353.88 574.54 354.44 574.35 354.98C574.32 355.05 574.14 355.57 574.12 355.63C573.93 356.17 573.41 356.48 572.96 356.32C572.51 356.17 572.3 355.6 572.49 355.06Z" id="d65niFyBW"></path><path d="M571.25 350.68C570.91 350.56 570.75 350.12 570.89 349.7C571.04 349.29 571.44 349.05 571.79 349.17C572.45 349.4 577.71 351.27 578.37 351.5C578.71 351.62 578.87 352.06 578.73 352.48C578.58 352.89 578.18 353.13 577.83 353.01C576.52 352.54 571.91 350.91 571.25 350.68Z" id="b5lmZRRvsJ"></path><path d="M589.76 348.25C589.41 348.12 589.25 347.69 589.4 347.27C589.54 346.86 589.94 346.62 590.29 346.74C590.95 346.97 596.21 348.84 596.87 349.07C597.21 349.19 597.38 349.63 597.23 350.05C597.08 350.46 596.68 350.7 596.33 350.58C595.02 350.11 590.41 348.48 589.76 348.25Z" id="cT9njkxDu"></path><path d="M132.42 321.41C131.58 321.6 130.7 321.5 129.9 321.14C129.32 320.89 128.8 320.49 128.38 319.99C127.91 319.42 125.53 316.57 121.25 311.46L125.3 306.98L130.76 309.31C133.1 312.11 134.4 313.66 134.66 313.97C135.67 315.18 136.01 316.87 135.55 318.4C135.1 319.93 133.91 321.08 132.44 321.41C132.44 321.41 132.42 321.41 132.42 321.41Z" id="a17BBvTcW4"></path><path d="M83.2 320.02C81.3 326.54 80.25 330.15 80.04 330.88C79.58 332.42 78.39 333.58 76.91 333.91C76.91 333.91 76.9 333.92 76.9 333.92C75.42 334.25 73.89 333.72 72.87 332.52C71.85 331.32 71.5 329.63 71.96 328.1C72.07 327.7 72.65 325.73 73.69 322.17L77.75 317.69L83.2 320.02Z" id="a1EW8l4yO"></path><path d="M128.38 319.99C127.91 319.42 125.53 316.57 121.25 311.46L123.28 309.22L126 310.38C128.35 313.18 129.65 314.73 129.91 315.05C131.37 316.79 131.37 319.43 129.9 321.14C129.32 320.89 128.8 320.49 128.38 319.99Z" id="e3PMjxpPp"></path><path d="M78.45 321.1C76.55 327.61 75.49 331.22 75.28 331.95C75.1 332.59 74.78 333.17 74.35 333.65C72.34 332.73 71.31 330.32 71.96 328.1C72.07 327.7 72.65 325.73 73.69 322.17L75.72 319.93L78.45 321.1Z" id="a2K0d8Ft1t"></path><path d="M91.63 239.73L82.12 241.88C81.28 237.79 80.82 235.52 80.72 235.06C80.15 232.24 81.81 229.48 84.43 228.89C87.06 228.29 89.66 230.1 90.23 232.92C90.42 233.83 90.89 236.1 91.63 239.73Z" id="bIpeUqhum"></path><path d="M86.87 240.81L82.12 241.88C81.28 237.79 80.82 235.52 80.72 235.06C80.35 233.24 80.91 231.35 82.19 230.1C82.6 230.25 82.98 230.45 83.34 230.7C84.43 231.45 85.2 232.64 85.48 233.99C85.67 234.9 86.13 237.17 86.87 240.81Z" id="aBVvGJiTU"></path><path d="M125.81 228.47C129.31 227.68 132.77 230.1 133.54 233.86C134.87 240.33 145.47 292.1 146.8 298.57C147.57 302.34 145.36 306.03 141.85 306.81C133.93 308.6 70.52 322.88 62.6 324.67C59.09 325.46 55.63 323.04 54.86 319.28C53.53 312.81 42.93 261.04 41.6 254.57C40.83 250.8 43.05 247.11 46.55 246.33C46.55 246.33 117.88 230.26 125.81 228.47Z" id="aZnwnrifO"></path><path d="M121.05 229.54C124.55 228.76 128.02 231.17 128.79 234.93C130.11 241.4 140.72 293.17 142.04 299.64C142.81 303.41 140.6 307.1 137.1 307.89C129.65 309.56 70.05 322.99 62.6 324.67C59.09 325.46 55.63 323.04 54.86 319.28C53.53 312.81 42.93 261.04 41.6 254.57C40.83 250.8 43.05 247.11 46.55 246.33C46.55 246.33 113.6 231.22 121.05 229.54Z" id="jakyaIcEB"></path><path d="M125.62 235.64C126.49 235.45 127.36 236.05 127.55 236.99C128.81 243.12 138.85 292.17 140.11 298.3C140.3 299.24 139.75 300.16 138.87 300.36C131.26 302.07 70.39 315.78 62.79 317.5C61.91 317.69 61.04 317.09 60.85 316.15C59.6 310.02 49.55 260.97 48.29 254.84C48.1 253.9 48.65 252.98 49.53 252.78C49.53 252.78 118.01 237.36 125.62 235.64Z" id="a1jMEr8eDb"></path><path d="M120.86 236.71C121.74 236.52 122.6 237.12 122.79 238.06C124.05 244.19 134.1 293.24 135.35 299.37C135.55 300.31 134.99 301.23 134.12 301.43C126.98 303.04 69.92 315.89 62.79 317.5C61.91 317.69 61.04 317.09 60.85 316.15C59.6 310.02 49.55 260.97 48.29 254.84C48.1 253.9 48.65 252.98 49.53 252.78C49.53 252.78 113.73 238.32 120.86 236.71Z" id="fm5B2JmiD"></path><path d="M110.56 283.58C115.37 307.08 118.05 320.13 118.58 322.74C118.77 323.68 118.22 324.61 117.35 324.8C114.81 325.38 94.52 329.95 91.99 330.52C91.11 330.71 90.25 330.11 90.05 329.17C89.52 326.56 86.84 313.5 82.03 290L110.56 283.58Z" id="k4xn7jhmn"></path><path d="M105.8 284.65C110.62 308.15 113.29 321.2 113.83 323.82C114.02 324.76 113.47 325.68 112.59 325.88C110.53 326.34 94.05 330.05 91.99 330.52C91.11 330.71 90.25 330.11 90.05 329.17C89.52 326.56 86.84 313.5 82.03 290L105.8 284.65Z" id="c3UjsWLSC"></path><path d="M110.56 283.58C111.14 286.4 109.48 289.16 106.85 289.75C104.23 290.35 101.63 288.54 101.05 285.72C101.63 288.54 99.97 291.31 97.34 291.9C94.71 292.49 92.12 290.68 91.54 287.86C92.12 290.68 90.46 293.45 87.83 294.04C85.2 294.63 82.61 292.82 82.03 290C82.07 289.64 82.3 287.8 82.71 284.5L84.97 266.02L85.42 266.08L91.06 261.24L98.1 263.22L98.48 262.97L107.79 278.85C109.27 281.37 110.19 282.95 110.56 283.58Z" id="asOd9yYwv"></path><path d="M105.8 284.65C106.18 286.47 105.62 288.37 104.33 289.61C102.67 289.03 101.42 287.54 101.05 285.72C101.43 287.54 100.87 289.44 99.58 290.68C97.97 290.12 97.38 292.09 96.99 290.19C97.38 292.09 96.07 290.54 94.82 291.75C93.16 291.17 91.91 289.69 91.54 287.86C91.92 289.69 91.35 291.58 90.07 292.82C88.46 292.26 87.87 294.23 87.48 292.34C87.87 294.23 86.56 292.69 85.31 293.89C83.65 293.31 82.4 291.83 82.03 290C82.07 289.64 82.3 287.8 82.71 284.5L84.97 266.02L85.42 266.08L88.94 263.06L93.34 264.29L93.72 264.05L103.03 279.93C104.51 282.44 105.43 284.02 105.8 284.65Z" id="eyD1enIhp"></path><path d="M98.48 262.97L98.1 263.22L85.42 266.08L84.97 266.02C85.86 258.77 86.35 254.75 86.45 253.94C86.5 253.51 86.63 253.1 86.83 252.72C87.38 251.65 88.42 250.98 89.57 250.95C90.72 250.93 91.8 251.56 92.41 252.6C93.22 253.98 95.24 257.44 98.48 262.97Z" id="adG8izulr"></path><path d="M93.72 264.05L93.34 264.29L85.42 266.08L84.97 266.02C85.86 258.77 86.35 254.75 86.45 253.94C86.5 253.51 86.63 253.1 86.83 252.72C87.16 252.98 87.44 253.3 87.65 253.67C88.46 255.06 90.49 258.51 93.72 264.05Z" id="i1VdijkVv7"></path><path d="M116.84 314.23C115.96 314.43 115.1 313.82 114.91 312.88C114.71 311.94 115.27 311.02 116.14 310.82C118.68 310.25 138.97 305.68 141.5 305.11C144.13 304.52 145.79 301.75 145.21 298.93C143.89 292.46 133.28 240.69 131.96 234.21C131.38 231.4 128.78 229.59 126.15 230.18C118.23 231.96 54.82 246.24 46.9 248.03C44.27 248.62 42.61 251.39 43.19 254.21C44.51 260.68 55.12 312.45 56.45 318.93C57.03 321.74 59.62 323.55 62.25 322.96C64.78 322.39 85.07 317.82 87.61 317.25C88.49 317.05 89.35 317.66 89.54 318.6C89.74 319.54 89.18 320.46 88.31 320.66C85.77 321.23 65.48 325.8 62.95 326.37C58.57 327.35 54.24 324.34 53.27 319.64C51.95 313.17 41.34 261.39 40.02 254.92C39.06 250.22 41.83 245.61 46.2 244.62C54.13 242.84 117.53 228.56 125.46 226.77C129.83 225.79 134.16 228.8 135.13 233.5C136.45 239.97 147.06 291.75 148.38 298.22C149.34 302.92 146.58 307.53 142.2 308.52C137.13 309.66 119.38 313.66 116.84 314.23Z" id="anPbpgrZO"></path><path d="M115.44 307.42C114.57 307.61 113.7 307.01 113.51 306.07C113.32 305.13 113.87 304.21 114.75 304.01C116.33 303.65 124.26 301.87 138.52 298.66L125.96 237.35L49.88 254.48L62.44 315.79C76.7 312.58 84.63 310.8 86.21 310.44C87.09 310.24 87.96 310.84 88.15 311.78C88.34 312.72 87.79 313.65 86.91 313.84C84.53 314.38 65.51 318.66 63.13 319.2C61.38 319.59 59.65 318.39 59.27 316.51C58.01 310.38 47.96 261.33 46.71 255.2C46.32 253.32 47.43 251.47 49.18 251.08C56.79 249.36 117.66 235.65 125.27 233.94C127.02 233.55 128.75 234.75 129.14 236.63C130.39 242.76 140.44 291.81 141.69 297.94C142.08 299.82 140.97 301.66 139.22 302.06C134.47 303.13 117.82 306.88 115.44 307.42Z" id="aKVXomGrJ"></path><path d="M81.77 240.17C80.89 240.37 80.03 239.77 79.84 238.83C79.77 238.49 79.21 235.76 79.14 235.42C78.37 231.66 80.58 227.97 84.08 227.18C87.59 226.39 91.05 228.8 91.82 232.57C91.89 232.91 92.45 235.63 92.52 235.97C92.71 236.91 92.16 237.83 91.28 238.03C89.38 238.46 82.72 239.96 81.77 240.17ZM82.66 236.41L89 234.98C88.79 233.96 88.67 233.39 88.65 233.28C88.26 231.4 86.53 230.19 84.78 230.59C83.03 230.98 81.92 232.83 82.31 234.71C82.36 234.93 82.47 235.5 82.66 236.41Z" id="e3jO6zX0hG"></path><path d="M86.37 319.31C85.78 316.42 81.04 293.25 80.44 290.36C80.4 290.16 80.39 289.96 80.42 289.76C80.86 286.15 84.4 257.31 84.84 253.7C85.11 251.52 86.62 249.77 88.62 249.32C90.63 248.87 92.69 249.82 93.78 251.69C95.32 254.32 107.62 275.31 109.16 277.94C109.64 278.76 109.41 279.83 108.65 280.34C107.9 280.84 106.89 280.59 106.41 279.77C104.88 277.14 92.57 256.14 91.04 253.52C90.67 252.89 89.99 252.58 89.32 252.73C88.65 252.88 88.15 253.46 88.06 254.18C87.77 256.57 86.31 268.49 83.67 289.94C87.2 307.14 89.15 316.69 89.54 318.6C89.74 319.54 89.18 320.46 88.31 320.66C87.43 320.85 86.57 320.25 86.37 319.31Z" id="a1wl2Il6df"></path><path d="M114.91 312.88C114.31 309.99 109.57 286.83 108.98 283.93C108.78 282.99 109.34 282.07 110.21 281.87C111.09 281.67 111.95 282.28 112.15 283.22C112.74 286.11 117.48 309.27 118.08 312.17C118.27 313.11 117.72 314.03 116.84 314.23C115.96 314.43 115.1 313.82 114.91 312.88Z" id="dT5bShGoK"></path><path d="M90.75 332.58C89.87 332.77 89.01 332.17 88.82 331.23C87.98 327.14 81.28 294.45 80.44 290.36C80.25 289.42 80.8 288.5 81.68 288.3C82.55 288.1 83.42 288.7 83.61 289.64C84.15 292.26 86.82 305.31 91.64 328.81L117 323.1C112.18 299.6 109.51 286.54 108.98 283.93C108.78 282.99 109.34 282.07 110.21 281.87C111.09 281.67 111.95 282.28 112.15 283.22C112.98 287.31 119.68 320 120.52 324.09C120.71 325.03 120.16 325.95 119.28 326.15C113.58 327.44 93.6 331.94 90.75 332.58Z" id="c3j9XV8FUG"></path><path d="M80.44 290.36C80.25 289.42 80.8 288.5 81.68 288.3C82.55 288.1 83.42 288.7 83.61 289.64C84 291.53 85.73 292.73 87.48 292.34C89.23 291.94 90.34 290.1 89.95 288.22C89.76 287.28 90.31 286.35 91.19 286.16C92.07 285.96 92.93 286.56 93.12 287.5C93.89 291.26 91.68 294.95 88.18 295.74C84.68 296.53 81.22 294.12 80.44 290.36Z" id="a3upcYF9e"></path><path d="M89.95 288.22C89.76 287.28 90.31 286.35 91.19 286.16C92.07 285.96 92.93 286.56 93.12 287.5C93.51 289.38 95.24 290.59 96.99 290.19C98.74 289.8 99.85 287.96 99.46 286.07C99.27 285.13 99.83 284.21 100.7 284.01C101.58 283.82 102.44 284.42 102.63 285.36C103.4 289.12 101.19 292.81 97.69 293.6C94.19 294.38 90.73 291.98 89.95 288.22Z" id="b28wqoxwkw"></path><path d="M99.46 286.07C99.27 285.13 99.83 284.21 100.7 284.01C101.58 283.82 102.44 284.42 102.63 285.36C103.02 287.24 104.75 288.45 106.5 288.05C108.25 287.66 109.36 285.81 108.98 283.93C108.78 282.99 109.34 282.07 110.21 281.87C111.09 281.67 111.95 282.28 112.15 283.22C112.91 286.98 110.7 290.67 107.2 291.46C103.7 292.24 100.24 289.83 99.46 286.07Z" id="f9cdWRyQt"></path><path d="M109.19 284.49C107.37 281.39 92.85 256.61 91.04 253.52C90.67 252.89 89.99 252.58 89.32 252.73C88.65 252.88 88.15 253.46 88.06 254.18C87.62 257.79 84.08 286.64 83.64 290.25C83.52 291.2 82.7 291.86 81.81 291.72C80.93 291.59 80.3 290.71 80.42 289.76C80.86 286.15 84.4 257.31 84.84 253.7C85.11 251.52 86.62 249.77 88.62 249.32C90.63 248.87 92.69 249.82 93.78 251.69C95.6 254.79 110.12 279.56 111.93 282.66C112.21 283.14 112.26 283.74 112.06 284.26C111.85 284.78 111.43 285.16 110.91 285.28C110.24 285.43 109.56 285.11 109.19 284.49Z" id="a2SY5ghStQ"></path><path d="M85.77 267.78C84.89 267.98 84.03 267.37 83.83 266.43C83.64 265.49 84.19 264.57 85.07 264.37C86.34 264.09 96.48 261.8 97.75 261.52C98.63 261.32 99.49 261.92 99.68 262.86C99.88 263.8 99.32 264.73 98.45 264.92C95.91 265.49 87.04 267.49 85.77 267.78Z" id="c2oPFInzX1"></path><path d="M92.74 301.84C92.71 301.67 92.43 300.31 92.4 300.14C92.2 299.2 92.76 298.27 93.63 298.08C94.51 297.88 95.37 298.48 95.57 299.42C95.6 299.59 95.88 300.96 95.91 301.13C96.11 302.07 95.55 302.99 94.68 303.19C93.8 303.38 92.94 302.78 92.74 301.84Z" id="g71hyUMOeR"></path><path d="M98.33 329.09C97.91 327.05 94.56 310.7 94.14 308.65C93.95 307.71 94.5 306.79 95.38 306.59C96.25 306.4 97.12 307 97.31 307.94C97.73 309.98 101.08 326.33 101.5 328.37C101.69 329.32 101.14 330.24 100.26 330.44C99.38 330.63 98.52 330.03 98.33 329.09Z" id="bMnVYuTIQ"></path><path d="M102.26 299.7C102.22 299.53 101.94 298.17 101.91 298C101.71 297.05 102.27 296.13 103.14 295.94C104.02 295.74 104.88 296.34 105.08 297.28C105.11 297.45 105.39 298.81 105.43 298.98C105.62 299.92 105.06 300.85 104.19 301.04C103.31 301.24 102.45 300.64 102.26 299.7Z" id="a28EZRkbB"></path><path d="M107.84 326.95C107.42 324.9 104.07 308.55 103.65 306.51C103.46 305.57 104.01 304.65 104.89 304.45C105.76 304.25 106.63 304.86 106.82 305.8C107.24 307.84 110.59 324.19 111.01 326.23C111.2 327.17 110.65 328.1 109.77 328.29C108.9 328.49 108.03 327.89 107.84 326.95Z" id="bmkwvY3pr"></path><path d="M71.69 333.68C70.28 332.02 69.79 329.69 70.41 327.56C70.58 326.97 71.97 322.22 72.14 321.63C72.31 321.03 72.77 320.58 73.34 320.45C73.9 320.32 74.5 320.52 74.89 320.99C75.29 321.45 75.42 322.11 75.24 322.7C75.07 323.29 73.68 328.04 73.51 328.63C73.23 329.58 73.45 330.61 74.08 331.35C74.7 332.09 75.64 332.42 76.55 332.21C77.46 332.01 78.2 331.3 78.48 330.34C78.8 329.26 81.34 320.57 81.65 319.49C81.93 318.59 82.83 318.09 83.68 318.39C84.53 318.68 85.01 319.65 84.75 320.56C84.44 321.64 81.9 330.33 81.58 331.41C80.96 333.55 79.31 335.15 77.26 335.62C75.23 336.08 73.1 335.35 71.69 333.68Z" id="l2sBFe4iGU"></path><path d="M127.18 321.14C126.47 320.29 120.76 313.46 120.04 312.61C119.65 312.15 119.51 311.49 119.69 310.9C119.87 310.3 120.33 309.86 120.9 309.74C121.47 309.61 122.06 309.83 122.45 310.3C123.16 311.15 128.88 317.98 129.59 318.83C130.22 319.58 131.16 319.91 132.07 319.71C132.98 319.51 133.72 318.8 134 317.86C134.29 316.92 134.08 315.87 133.46 315.13C133.07 314.66 129.94 310.93 129.55 310.47C129.16 310 129.02 309.35 129.2 308.76C129.38 308.16 129.84 307.72 130.41 307.59C130.98 307.47 131.57 307.69 131.96 308.16C132.35 308.62 135.47 312.35 135.86 312.82C137.26 314.49 137.73 316.82 137.1 318.94C136.46 321.06 134.82 322.65 132.79 323.11C130.74 323.57 128.6 322.82 127.18 321.14Z" id="e6Jm0DwGjg"></path><path d="M63.98 273.6C63.59 273.16 61.63 270.92 58.11 266.88C56.75 267.19 55.99 267.36 55.84 267.39C54.96 267.59 54.1 266.99 53.9 266.05C53.71 265.11 54.27 264.19 55.14 263.99C55.46 263.92 57.99 263.35 58.31 263.27C58.87 263.15 59.45 263.35 59.84 263.79C60.11 264.11 61.47 265.66 63.92 268.46C64.66 260.88 65.08 256.67 65.16 255.82C65.24 255.08 65.74 254.47 66.43 254.32C67.54 254.07 76.41 252.07 77.52 251.82C78.4 251.62 79.26 252.23 79.46 253.17C79.65 254.11 79.1 255.03 78.22 255.23C77.56 255.38 74.24 256.12 68.27 257.47C67.37 266.56 66.87 271.61 66.77 272.62C66.71 273.3 66.28 273.86 65.68 274.08C65.62 274.09 65.57 274.11 65.51 274.12C64.95 274.25 64.37 274.05 63.98 273.6Z" id="apuoEyYpX"></path><path d="M70.8 267.59C70.73 267.25 70.17 264.52 70.11 264.18C69.53 261.36 71.19 258.59 73.81 258C76.44 257.41 79.04 259.22 79.62 262.04C79.69 262.38 80.24 265.1 80.31 265.44C80.89 268.27 79.23 271.03 76.61 271.63C73.98 272.21 71.38 270.41 70.8 267.59ZM73.28 263.47C73.35 263.81 73.9 266.53 73.97 266.87C74.17 267.81 75.03 268.42 75.91 268.22C76.78 268.02 77.34 267.1 77.14 266.16C77.07 265.82 76.52 263.09 76.45 262.75C76.25 261.81 75.39 261.21 74.51 261.41C73.64 261.61 73.08 262.53 73.28 263.47Z" id="f1iZit8wQn"></path><path d="M65.48 290.17C64.6 290.36 63.74 289.76 63.54 288.82C63.35 287.88 63.91 286.96 64.78 286.76C64.71 286.42 64.15 283.69 64.08 283.35C63.44 283.5 62.78 283.21 62.4 282.63C62.03 282.05 62.01 281.29 62.37 280.7C62.49 280.49 63.48 278.85 63.6 278.64C63.96 278.05 64.61 277.75 65.25 277.88C65.9 278.01 66.41 278.54 66.56 279.23C66.7 279.91 67.81 285.36 67.95 286.05C68.83 285.85 69.69 286.45 69.88 287.39C70.08 288.33 69.52 289.26 68.65 289.45C68.01 289.6 65.8 290.09 65.48 290.17Z" id="c2pP0qTUMj"></path><path d="M63.7 297.69C62.83 297.89 61.96 297.29 61.77 296.35C61.58 295.41 62.13 294.48 63.01 294.29C63.96 294.07 71.57 292.36 72.52 292.14C73.39 291.95 74.26 292.55 74.45 293.49C74.64 294.43 74.09 295.35 73.21 295.55C71.31 295.98 64.65 297.48 63.7 297.69Z" id="b3OJdrqO"></path><path d="M68.08 310.96C67.51 311.09 66.91 310.88 66.52 310.41C66.13 309.94 66.01 309.28 66.19 308.69C66.49 307.73 68.9 300.06 69.2 299.1C69.38 298.51 69.85 298.07 70.42 297.95C70.99 297.83 71.58 298.05 71.97 298.52C72.35 299 72.47 299.65 72.28 300.24C72.14 300.69 71.44 302.91 70.18 306.92C72.31 306.44 73.49 306.18 73.72 306.13C74.6 305.93 75.46 306.53 75.66 307.47C75.85 308.41 75.3 309.33 74.42 309.53C74.42 309.53 68.71 310.82 68.08 310.96Z" id="b17YljICGo"></path><path d="M71.25 310.25C71.21 310.08 70.94 308.71 70.9 308.54C70.71 307.6 71.26 306.68 72.14 306.48C73.01 306.29 73.88 306.89 74.07 307.83C74.11 308 74.39 309.36 74.42 309.53C74.61 310.47 74.06 311.39 73.18 311.59C72.31 311.79 71.44 311.19 71.25 310.25Z" id="bdFht7xu9"></path><path d="M108.46 253.76C108.26 252.82 108.82 251.9 109.69 251.7C110.33 251.56 110.83 251.01 110.94 250.32C111.06 249.63 110.77 248.93 110.22 248.54C109.46 248.04 108.47 248.26 107.98 249.05C107.67 249.58 107.12 249.89 106.53 249.86C105.95 249.82 105.42 249.46 105.15 248.9C104.88 248.34 104.92 247.67 105.24 247.14C106.73 244.79 109.69 244.12 111.97 245.63C113.63 246.78 114.48 248.89 114.14 250.96C113.79 253.04 112.31 254.67 110.39 255.11C109.52 255.3 108.65 254.7 108.46 253.76Z" id="i8Ev5qfs9j"></path><path d="M108.12 261.18C107.62 260.84 107.32 260.25 107.35 259.62C107.37 258.99 107.71 258.43 108.23 258.15C108.75 257.87 109.38 257.92 109.87 258.27C110.62 258.77 111.61 258.55 112.11 257.76C112.46 257.17 112.45 256.41 112.07 255.83C111.69 255.25 111.03 254.96 110.39 255.11C109.52 255.3 108.65 254.7 108.46 253.76C108.26 252.82 108.82 251.9 109.69 251.7C112.32 251.11 114.92 252.92 115.49 255.74C116.07 258.56 114.41 261.33 111.79 261.92C110.52 262.21 109.2 261.94 108.12 261.18Z" id="aQpfXdj2C"></path><path d="M124.08 273.35C123.88 272.41 124.44 271.49 125.31 271.29C125.95 271.15 126.45 270.6 126.56 269.91C126.68 269.22 126.39 268.52 125.84 268.13C125.08 267.63 124.09 267.85 123.6 268.64C123.11 269.43 122.12 269.64 121.37 269.12C120.62 268.6 120.4 267.54 120.86 266.73C122.35 264.38 125.31 263.71 127.59 265.22C129.25 266.38 130.1 268.48 129.76 270.56C129.41 272.63 127.93 274.26 126.01 274.7C125.14 274.9 124.27 274.29 124.08 273.35Z" id="dK1Qmerwt"></path><path d="M124.1 282.52C123.36 281.99 123.15 280.93 123.62 280.13C124.1 279.33 125.09 279.1 125.85 279.61C126.6 280.11 127.59 279.89 128.09 279.11C128.44 278.52 128.43 277.75 128.05 277.17C127.67 276.59 127.01 276.31 126.37 276.45C125.49 276.65 124.63 276.05 124.44 275.1C124.24 274.16 124.8 273.24 125.67 273.04C128.3 272.45 130.9 274.26 131.47 277.08C132.05 279.9 130.39 282.67 127.77 283.26C126.51 283.55 125.18 283.28 124.1 282.52Z" id="b3g8XRu0gF"></path><path d="M111.89 273.27C111.52 272.69 111.5 271.92 111.86 271.33C112.97 269.48 121.87 254.65 122.98 252.79C123.47 252.01 124.46 251.79 125.21 252.31C125.95 252.83 126.18 253.89 125.72 254.7C124.6 256.55 115.7 271.38 114.59 273.24C114.36 273.62 113.99 273.89 113.57 273.99C112.93 274.13 112.27 273.85 111.89 273.27Z" id="c8aQ1Bpb5d"></path><path d="M118.99 292.36C118.12 292.56 117.25 291.96 117.06 291.02C116.87 290.08 117.42 289.16 118.3 288.96C118.46 288.92 119.72 288.64 119.88 288.6C120.76 288.4 121.62 289.01 121.82 289.95C122.01 290.89 121.45 291.81 120.58 292.01C120.26 292.08 119.15 292.33 118.99 292.36Z" id="e1tCQeu67D"></path><path d="M125.33 290.94C124.46 291.13 123.59 290.53 123.4 289.59C123.21 288.65 123.76 287.73 124.64 287.53C125.27 287.39 130.34 286.25 130.98 286.1C131.85 285.91 132.72 286.51 132.91 287.45C133.1 288.39 132.55 289.31 131.68 289.51C130.41 289.79 125.97 290.79 125.33 290.94Z" id="d5o2Y0NPBL"></path><path d="M120.39 299.18C119.51 299.37 118.65 298.77 118.46 297.83C118.26 296.89 118.82 295.97 119.69 295.77C120.96 295.49 131.1 293.2 132.37 292.91C133.25 292.72 134.11 293.32 134.31 294.26C134.5 295.2 133.95 296.12 133.07 296.32C130.53 296.89 121.66 298.89 120.39 299.18Z" id="c4tJ8TptN0"></path><path d="M409.28 128.72C409.28 128.75 409.16 132.65 407.37 136.46C405.09 141.29 401.3 143.65 395.78 143.65C392.99 143.65 390.91 142.79 389.42 141.04C386.14 137.18 386.18 129.6 386.47 127.02C386.48 126.98 386.48 126.93 386.49 126.89C386.51 126.66 388.44 103.8 389.81 84.36C389.96 82.17 388.39 80.28 386.31 80.12C384.22 79.96 382.41 81.6 382.26 83.78C380.93 102.72 379.05 124.92 378.95 126.14C378.89 126.68 378.62 129.59 378.94 133.18C379.44 138.7 381.05 143.1 383.73 146.27C386.66 149.73 390.83 151.56 395.78 151.56C400.43 151.56 404.46 150.33 407.78 147.91C410.45 145.96 412.59 143.28 414.16 139.95C416.71 134.52 416.85 129.11 416.85 128.88C416.9 126.7 415.24 124.89 413.15 124.84C411.06 124.8 409.33 126.53 409.28 128.72Z" id="hhnziu3YG"></path><path d="M543.87 356.39C541.8 355.65 540.83 353.02 541.71 350.53C544.65 342.24 568.15 275.9 571.08 267.6C571.97 265.11 574.37 263.68 576.45 264.41C581.64 266.25 623.21 280.98 628.41 282.82C630.48 283.55 631.45 286.18 630.57 288.67C627.63 296.97 604.13 363.31 601.2 371.6C600.31 374.09 597.91 375.53 595.83 374.79C585.44 371.11 549.07 358.23 543.87 356.39ZM575.91 265.92C574.53 265.43 572.93 266.38 572.34 268.05C569.4 276.34 545.9 342.68 542.96 350.97C542.38 352.64 543.02 354.39 544.4 354.88C549.6 356.72 591.17 371.44 596.37 373.28C597.75 373.77 599.35 372.82 599.94 371.16C602.88 362.86 626.38 296.52 629.32 288.23C629.9 286.57 629.26 284.82 627.88 284.33C617.48 280.64 586.31 269.6 575.91 265.92Z" id="dSy9Zxe1T"></path><path d="M553.63 75.5L590.3 100.07C607.31 75.4 616.76 61.69 618.65 58.95C617.93 54.95 616.4 51.2 612.01 48.26C599.69 40 589.52 54.74 577.2 46.48C576.33 45.89 575.57 45.28 574.9 44.63C572.07 48.75 564.98 59.04 553.63 75.5Z" id="bPj17cocX"></path><path d="M579.17 47.62C577.75 49.67 570.68 59.93 557.95 78.39L553.63 75.5C566.39 56.98 573.49 46.69 574.9 44.63C575.57 45.28 576.33 45.89 577.2 46.48C577.86 46.92 578.52 47.3 579.17 47.62Z" id="c7VAFMom2"></path><path d="M553.67 75.43C566.44 56.91 573.53 46.63 574.95 44.57C567.25 37.08 572.6 25.83 565.99 18.02C563.93 21.01 553.61 35.99 535.03 62.94L553.67 75.43Z" id="aLeU83bZH"></path><path d="M539.35 65.84L535.03 62.94C553.61 35.99 563.93 21.01 565.99 18.02C567.35 19.61 568.2 21.36 568.76 23.18C564.84 28.87 555.04 43.08 539.35 65.84Z" id="b3bjCaXZ4k"></path><path d="M605.4 110.18L590.33 100.09C607.34 75.42 616.79 61.71 618.68 58.97C619.98 66.2 618.59 74.21 626.53 79.53C623.71 83.62 616.67 93.83 605.4 110.18Z" id="c166H9pM6x"></path><path d="M594.66 102.98L590.33 100.09C607.34 75.42 616.79 61.71 618.68 58.97C619.14 61.54 619.26 64.21 619.59 66.82C616.26 71.64 607.95 83.7 594.66 102.98Z" id="a2mGUPBWBp"></path><path d="M611.56 101.97C611.4 101.13 610.58 100.58 609.72 100.74C608.87 100.91 608.3 101.73 608.46 102.57C608.57 103.14 609.11 106.01 610.07 111.16L591.95 99.02C607.02 77.16 615.39 65.02 617.07 62.59C617.1 62.86 617.12 63.14 617.15 63.42C617.69 69.15 618.3 75.64 625.07 80.18C625.78 80.66 626.76 80.47 627.26 79.76C627.75 79.04 627.57 78.08 626.85 77.6C621.29 73.87 620.8 68.64 620.28 63.1C619.74 57.37 619.13 50.87 612.36 46.34C605.59 41.8 599.24 43.63 593.64 45.25C591.18 45.95 588.86 46.62 586.5 46.84C585.63 46.91 584.98 47.67 585.05 48.53C585.12 49.38 585.88 50.02 586.75 49.94C589.41 49.7 592 48.96 594.49 48.24C599.91 46.67 605.03 45.2 610.58 48.92C614.27 51.4 615.73 54.54 616.44 58C614.64 60.62 605.61 73.71 589.36 97.28C586.14 95.12 584.35 93.92 583.99 93.68C583.27 93.2 582.29 93.39 581.8 94.11C581.31 94.82 581.49 95.79 582.21 96.27C583.95 97.43 592.64 103.26 608.29 113.75C603.07 114.76 600.18 115.32 599.6 115.43C598.74 115.6 598.18 116.41 598.34 117.26C598.41 117.68 598.66 118.03 598.99 118.25C599.32 118.47 599.74 118.57 600.17 118.49C601.41 118.25 611.36 116.32 612.6 116.08C613.46 115.92 614.02 115.1 613.86 114.25C613.86 114.25 611.79 103.2 611.56 101.97Z" id="atztfl7MD"></path><path d="M555.28 74.45C566.9 57.58 573.36 48.21 574.65 46.34C575.01 46.61 575.37 46.88 575.77 47.15C576.72 47.78 577.7 48.32 578.68 48.74C579.47 49.08 580.4 48.71 580.75 47.92C581.1 47.13 580.74 46.22 579.95 45.88C579.15 45.53 578.34 45.09 577.55 44.56C572 40.84 571.5 35.61 570.98 30.07C570.58 25.74 570.15 21.28 567.35 17.39C568.11 16.3 571.87 10.84 578.64 1.02C579.61 6.17 580.15 9.03 580.25 9.61C580.33 10.03 580.58 10.38 580.91 10.6C581.24 10.82 581.66 10.92 582.09 10.84C582.94 10.67 583.51 9.85 583.35 9.01C583.12 7.78 581.27 -2.05 581.04 -3.27C581.03 -3.32 581.02 -3.37 581.01 -3.42C581 -3.45 580.99 -3.47 580.99 -3.49C580.98 -3.51 580.97 -3.54 580.96 -3.57C580.95 -3.59 580.94 -3.61 580.93 -3.64C580.91 -3.66 580.9 -3.68 580.89 -3.71C580.88 -3.73 580.87 -3.75 580.85 -3.77C580.84 -3.79 580.83 -3.82 580.82 -3.84C580.8 -3.86 580.79 -3.88 580.77 -3.9C580.76 -3.92 580.74 -3.94 580.72 -3.96C580.71 -3.98 580.69 -3.99 580.68 -4.01C580.66 -4.03 580.64 -4.05 580.62 -4.07C580.6 -4.09 580.59 -4.11 580.57 -4.13C580.55 -4.14 580.53 -4.16 580.51 -4.18C580.48 -4.2 580.44 -4.23 580.4 -4.26C580.4 -4.26 580.39 -4.26 580.39 -4.27C580.38 -4.27 580.38 -4.27 580.37 -4.28C580.33 -4.3 580.3 -4.33 580.26 -4.35C580.23 -4.36 580.21 -4.37 580.19 -4.38C580.16 -4.39 580.14 -4.4 580.12 -4.41C580.09 -4.42 580.06 -4.43 580.04 -4.44C580.02 -4.45 580 -4.46 579.97 -4.46C579.95 -4.47 579.92 -4.48 579.89 -4.48C579.87 -4.49 579.85 -4.5 579.82 -4.5C579.8 -4.51 579.77 -4.51 579.75 -4.51C579.72 -4.52 579.7 -4.52 579.67 -4.52C579.65 -4.53 579.62 -4.53 579.59 -4.53C579.57 -4.53 579.54 -4.53 579.52 -4.53C579.49 -4.53 579.46 -4.53 579.43 -4.53C579.41 -4.53 579.39 -4.53 579.36 -4.53C579.31 -4.52 579.26 -4.51 579.21 -4.5C577.97 -4.26 568.02 -2.34 566.78 -2.1C565.92 -1.93 565.36 -1.11 565.52 -0.27C565.6 0.15 565.84 0.5 566.17 0.73C566.51 0.95 566.92 1.04 567.35 0.96C567.93 0.85 570.83 0.29 576.05 -0.72L534.04 60.21C530.29 57.7 528.21 56.31 527.8 56.03C527.08 55.55 526.1 55.74 525.61 56.46C525.12 57.17 525.3 58.14 526.01 58.62C526.43 58.9 528.51 60.29 532.26 62.8C528.99 67.55 527.17 70.18 526.8 70.71C526.31 71.42 526.49 72.39 527.21 72.87C527.93 73.35 528.91 73.16 529.4 72.45C529.76 71.92 531.58 69.28 534.85 64.54C559.63 81.14 573.4 90.37 576.15 92.21C576.87 92.69 577.85 92.5 578.34 91.79C578.83 91.08 578.65 90.11 577.94 89.63C574.92 87.6 567.36 82.54 555.28 74.45ZM565.42 20.2C567.17 23.21 567.5 26.71 567.85 30.39C568.28 34.95 568.76 40.01 572.36 44.16C571.05 46.07 564.49 55.58 552.68 72.71L536.63 61.95C551.98 39.68 561.58 25.77 565.42 20.2Z" id="e3X582oQDj"></path><path d="M582.35 68.77C582.23 67.92 581.44 67.33 580.58 67.45C579.72 67.58 579.11 68.37 579.23 69.22C579.42 70.66 580.27 71.97 581.54 72.83C583.17 73.92 585.26 73.78 586.52 72.51C587.44 71.57 588 69.77 586.54 67.74C586.02 67.01 585.55 66.29 585.33 65.95C585.37 65.91 585.47 65.89 585.63 65.94C586.39 66.17 586.9 67.16 587.03 67.49C587.32 68.3 588.21 68.72 589.03 68.43C589.85 68.14 590.28 67.25 590 66.43C589.9 66.16 588.98 63.69 586.59 62.96C585.27 62.56 583.9 62.9 583.01 63.87C582.17 64.78 581.93 66.05 582.41 67.18C582.44 67.26 582.48 67.33 582.52 67.4C582.55 67.44 583.19 68.48 583.97 69.57C584.31 70.04 584.31 70.31 584.28 70.34C584.19 70.44 583.78 70.54 583.32 70.24C582.53 69.71 582.38 68.98 582.35 68.77Z" id="b3LbDxsvh6"></path><path d="M548.56 81.62C548.18 80.97 547.65 80.38 546.97 79.93C544.6 78.34 541.35 78.97 539.72 81.33C538.09 83.7 538.7 86.91 541.07 88.5C541.74 88.95 542.49 89.22 543.25 89.33C543.1 89.94 543.33 90.6 543.89 90.97C544.6 91.45 545.58 91.26 546.07 90.55C546.54 89.87 550.28 84.44 550.75 83.77C551.24 83.05 551.06 82.08 550.34 81.6C549.79 81.23 549.08 81.26 548.56 81.62ZM542.32 83.07C542.96 82.13 544.25 81.88 545.19 82.51C546.13 83.14 546.37 84.42 545.73 85.36C545.08 86.29 543.79 86.54 542.85 85.91C541.91 85.28 541.67 84.01 542.32 83.07Z" id="d2JTG6QfBY"></path><path d="M583.26 104.52C583.43 104.27 584.8 102.28 584.97 102.03C585.46 101.32 585.28 100.35 584.57 99.87C583.85 99.39 582.87 99.58 582.38 100.3C581.69 101.29 576.19 109.27 575.51 110.27C575.01 110.98 575.19 111.95 575.91 112.43C576.37 112.74 576.94 112.77 577.42 112.56C577.82 113.38 578.43 114.12 579.27 114.68C581.83 116.39 585.35 115.71 587.11 113.16C588.87 110.6 588.22 107.12 585.66 105.4C584.91 104.9 584.09 104.61 583.26 104.52ZM580.4 108.66C581.18 107.53 582.74 107.23 583.87 107.99C585.01 108.75 585.3 110.29 584.52 111.42C583.74 112.55 582.18 112.85 581.05 112.09C579.91 111.33 579.62 109.79 580.4 108.66Z" id="e1EF4ud"></path><path d="M593.35 27.26C592.86 27.98 593.04 28.95 593.75 29.43C594.47 29.91 595.45 29.72 595.94 29C596.18 28.65 597.39 26.91 599.55 23.76C599.67 23.84 599.74 23.89 599.75 23.89C600.47 24.37 601.45 24.18 601.94 23.47C602.43 22.76 602.25 21.79 601.54 21.31C601.52 21.3 601.46 21.26 601.34 21.18C601.7 20.65 601.9 20.36 601.94 20.31C602.07 20.37 602.24 20.48 602.35 20.59C602.98 21.17 603.97 21.15 604.57 20.53C605.18 19.9 605.16 18.92 604.54 18.33C604.3 18.1 603.05 16.98 601.52 17.15C600.68 17.24 599.94 17.7 599.43 18.45C599.36 18.55 598.8 19.35 598.73 19.45C598.04 19.1 597.17 19.31 596.72 19.97C596.27 20.63 596.39 21.5 596.97 22.01C596.24 23.06 593.71 26.74 593.35 27.26Z" id="c8BvqztvS"></path><path d="M608.61 36.96C609 37.23 609.51 37.31 610 37.14C610.21 37.07 611.24 36.72 613.1 36.08C613.2 38.14 613.25 39.28 613.26 39.51C613.29 40.01 613.55 40.45 613.95 40.71C614.22 40.89 614.55 40.99 614.91 40.97C615.78 40.92 616.45 40.19 616.41 39.33C616.39 39.04 616.33 37.61 616.2 35.03C618.26 34.32 619.4 33.93 619.63 33.86C620.46 33.58 620.9 32.69 620.63 31.88C620.35 31.06 619.46 30.63 618.63 30.91C618.46 30.97 617.6 31.26 616.05 31.79C615.97 30.17 615.93 29.27 615.92 29.09C615.88 28.23 615.14 27.57 614.27 27.62C613.41 27.67 612.74 28.41 612.78 29.27C612.79 29.51 612.84 30.7 612.95 32.85C610.58 33.66 609.27 34.11 609 34.2C608.18 34.48 607.73 35.37 608.01 36.18C608.12 36.51 608.34 36.78 608.61 36.96Z" id="bVDD3gVNi"></path><path d="M602.43 33.81C603.24 34.09 604.14 33.66 604.44 32.84C606.23 27.84 609.28 25.67 609.34 25.63C610.06 25.15 610.25 24.18 609.77 23.47C609.28 22.76 608.31 22.58 607.58 23.06C607.42 23.17 603.64 25.76 601.47 31.83C601.23 32.51 601.49 33.24 602.06 33.63C602.17 33.7 602.29 33.76 602.43 33.81Z" id="b2twwihc8T"></path><path d="M416.59 55.63C417.36 53.6 416.4 51.3 414.46 50.49C412.51 49.69 410.31 50.69 409.55 52.72C407.61 57.85 402.66 61.3 397.23 61.3C392.29 61.3 352.71 61.3 347.76 61.3C339.12 61.3 331.59 65.29 325.97 72.82C321.87 78.34 320.23 83.87 320.16 84.1C319.56 86.2 320.69 88.41 322.69 89.05C323.05 89.16 323.42 89.22 323.79 89.22C325.41 89.22 326.91 88.12 327.41 86.41C327.42 86.37 328.78 81.87 332.09 77.5C336.25 72.01 341.53 69.22 347.76 69.22C348.45 69.22 353.96 69.22 354.65 69.22C354.56 70.69 354.47 72.26 354.38 73.89C353.63 87.03 352.6 105.04 349.69 119.87C346.68 135.2 342.23 143.65 337.16 143.65C335.07 143.65 333.37 145.42 333.37 147.6C333.37 149.79 335.07 151.56 337.16 151.56C342.54 151.56 347.07 148.26 350.61 141.75C353.26 136.89 355.38 130.25 357.11 121.46C360.12 106.07 361.17 87.75 361.93 74.36C362.04 72.55 362.14 70.82 362.23 69.22C362.23 69.22 362.23 69.22 362.23 69.22C383.23 69.22 394.9 69.22 397.23 69.22C401.4 69.22 405.43 67.95 408.89 65.54C412.4 63.1 415.06 59.68 416.59 55.63Z" id="j1VBLO8trM"></path><path d="M495.53 573.13C495.53 573.16 495.42 576.34 493.82 579.45C491.79 583.41 488.42 585.33 483.49 585.33C481 585.33 479.15 584.64 477.82 583.2C474.89 580.04 474.93 573.85 475.19 571.74C475.2 571.7 475.2 571.67 475.21 571.63C475.22 571.44 476.95 552.76 478.17 536.86C478.3 535.07 476.91 533.52 475.05 533.39C473.19 533.26 471.57 534.6 471.43 536.38C470.25 551.87 468.58 570.02 468.49 571.02C468.44 571.46 468.19 573.84 468.48 576.78C468.93 581.29 470.36 584.89 472.75 587.48C475.36 590.31 479.07 591.81 483.49 591.81C487.63 591.81 491.23 590.8 494.19 588.82C496.57 587.23 498.48 585.04 499.88 582.31C502.15 577.87 502.27 573.45 502.28 573.26C502.32 571.48 500.84 570 498.97 569.96C497.12 569.92 495.57 571.34 495.53 573.13Z" id="bQGRxFWSH"></path><path d="M500.67 514.48C501.35 512.82 500.5 510.94 498.77 510.28C497.03 509.63 495.07 510.44 494.39 512.11C492.66 516.3 488.25 519.12 483.41 519.12C479 519.12 443.71 519.12 439.3 519.12C431.6 519.12 424.88 522.38 419.88 528.54C416.22 533.05 414.76 537.57 414.7 537.76C414.16 539.47 415.17 541.29 416.95 541.8C417.28 541.9 417.61 541.95 417.93 541.95C419.38 541.95 420.72 541.05 421.16 539.65C421.17 539.62 422.38 535.93 425.33 532.37C429.04 527.87 433.75 525.59 439.3 525.59C439.92 525.59 444.83 525.59 445.44 525.59C445.37 526.8 445.29 528.08 445.2 529.41C444.53 540.16 443.62 554.88 441.02 567C438.34 579.54 434.38 586.44 429.85 586.44C427.99 586.44 426.48 587.89 426.48 589.68C426.48 591.47 427.99 592.92 429.85 592.92C434.65 592.92 438.68 590.22 441.84 584.9C444.2 580.92 446.1 575.49 447.64 568.3C450.33 555.73 451.26 540.74 451.94 529.8C452.03 528.32 452.12 526.9 452.21 525.59C452.21 525.59 452.21 525.59 452.21 525.59C470.93 525.59 481.33 525.59 483.41 525.59C487.12 525.59 490.72 524.55 493.8 522.59C496.93 520.59 499.3 517.79 500.67 514.48Z" id="evNLYqThG"></path><path d="M2.12 573.03C2.12 572.28 2.12 566.3 2.12 565.55C2.12 563.22 3.95 561.32 6.22 561.32C8.48 561.32 10.32 563.22 10.32 565.55C10.32 566.3 10.32 572.28 10.32 573.03C10.32 575.37 8.48 577.26 6.22 577.26C3.95 577.26 2.12 575.37 2.12 573.03Z" id="e2SMhElPKQ"></path><path d="M4.17 561.89C5.39 562.63 6.22 563.99 6.22 565.55C6.22 566.3 6.22 572.28 6.22 573.03C6.22 574.59 5.39 575.96 4.17 576.69C4.77 577.05 5.47 577.26 6.22 577.26C8.48 577.26 10.32 575.37 10.32 573.03C10.32 572.28 10.32 566.3 10.32 565.55C10.32 563.22 8.48 561.32 6.22 561.32C5.47 561.32 4.77 561.53 4.17 561.89Z" id="d3StmZ6hU"></path><path d="M69.81 573.03C69.81 572.28 69.81 566.3 69.81 565.55C69.81 563.22 71.65 561.32 73.91 561.32C76.18 561.32 78.01 563.22 78.01 565.55C78.01 566.3 78.01 572.28 78.01 573.03C78.01 575.37 76.18 577.26 73.91 577.26C71.65 577.26 69.81 575.37 69.81 573.03Z" id="b2DWxQR6oK"></path><path d="M71.86 561.89C73.09 562.63 73.91 563.99 73.91 565.55C73.91 566.3 73.91 572.28 73.91 573.03C73.91 574.59 73.09 575.96 71.86 576.69C72.47 577.05 73.17 577.26 73.91 577.26C76.18 577.26 78.01 575.37 78.01 573.03C78.01 572.28 78.01 566.3 78.01 565.55C78.01 563.22 76.18 561.32 73.91 561.32C73.17 561.32 72.47 561.53 71.86 561.89Z" id="a2glnxQPL0"></path><path d="M87 630.77L-6.78 630.77C-6.78 597.18 -6.78 578.52 -6.78 574.79C-6.78 572.83 -5.24 571.23 -3.33 571.23C5.35 571.23 74.86 571.23 83.55 571.23C85.45 571.23 87 572.83 87 574.79C87 582.26 87 600.92 87 630.77Z" id="a5LQVyafO9"></path><path d="M78.3 571.23C80.2 571.23 81.75 572.83 81.75 574.79C81.75 578.52 81.75 597.18 81.75 630.77L87 630.77C87 597.18 87 578.52 87 574.79C87 572.83 85.45 571.23 83.55 571.23C82.5 571.23 78.82 571.23 78.3 571.23Z" id="e3KDTIrfSR"></path><path d="M60.83 633.08C60.83 628.81 60.83 626.44 60.83 625.97C60.83 624.35 62.1 623.04 63.67 623.04C65.72 623.04 82.1 623.04 84.15 623.04C85.72 623.04 87 624.35 87 625.97C87 626.44 87 628.81 87 633.08L60.83 633.08Z" id="buK8q4shj"></path><path d="M78.9 623.04C80.47 623.04 81.75 624.35 81.75 625.97C81.75 626.44 81.75 628.81 81.75 633.08L87 633.08C87 628.81 87 626.44 87 625.97C87 624.35 85.72 623.04 84.15 623.04C83.1 623.04 79.43 623.04 78.9 623.04Z" id="cmOlVOGXW"></path><path d="M-9.9 630.79L90.12 630.79L90.12 638.44L-9.9 638.44L-9.9 630.79Z" id="a6qGBY4XDO"></path><path d="M81.64 630.79C82.61 630.79 83.39 631.61 83.39 632.61C83.39 633.01 83.39 636.23 83.39 636.63C83.39 637.63 82.61 638.44 81.64 638.44C82.2 638.44 85.03 638.44 90.12 638.44L90.12 630.79C85.59 630.79 82.77 630.79 81.64 630.79Z" id="d1uocJ71RK"></path><path d="M53.18 614.21C53.78 612.4 58.63 597.93 59.24 596.12C59.51 595.31 59.09 594.42 58.3 594.14C57.51 593.86 56.66 594.29 56.38 595.11C56.19 595.69 55.21 598.59 53.46 603.82C51.66 598.59 50.66 595.68 50.46 595.1C50.19 594.28 49.32 593.86 48.54 594.15C47.75 594.44 47.34 595.33 47.62 596.14C47.9 596.96 49.32 601.1 51.88 608.54C50.95 611.33 50.43 612.88 50.32 613.19C50.05 614 50.47 614.89 51.26 615.17C51.85 615.36 52.74 615.19 53.18 614.21Z" id="a3MRTF3T1u"></path><path d="M13.04 608.64C13.27 608.32 14.42 606.75 16.49 603.92C18.67 606.88 19.88 608.53 20.12 608.86C20.6 609.3 21.17 609.8 22.24 609.15C22.9 608.63 23.03 607.66 22.53 606.97C22.25 606.6 20.87 604.72 18.38 601.33C20.47 598.46 21.64 596.87 21.87 596.55C22.37 595.87 22.24 594.89 21.57 594.37C20.91 593.85 19.96 593.99 19.46 594.68C19.26 594.95 18.27 596.31 16.48 598.75C14.68 596.31 13.68 594.95 13.48 594.67C12.98 593.99 12.03 593.86 11.37 594.38C10.7 594.9 10.57 595.87 11.08 596.56C11.31 596.88 12.48 598.47 14.59 601.34C12.22 604.59 10.89 606.4 10.63 606.76C10.13 607.45 10.26 608.43 10.93 608.94C11.35 609.28 12.34 609.46 13.04 608.64Z" id="bSE7uHQYB"></path><path d="M36.75 606.8C36.75 606.58 36.75 605.48 36.75 603.51C38.59 603.51 39.62 603.51 39.82 603.51C40.66 603.51 41.33 602.81 41.33 601.95C41.33 601.09 40.66 600.39 39.82 600.39C39.62 600.39 38.59 600.39 36.75 600.39C36.75 598.49 36.75 597.43 36.75 597.22C36.75 596.36 36.07 595.66 35.24 595.66C34.4 595.66 33.73 596.36 33.73 597.22C33.73 597.43 33.73 598.49 33.73 600.39C31.82 600.39 30.76 600.39 30.54 600.39C29.71 600.39 29.03 601.09 29.03 601.95C29.03 602.81 29.71 603.51 30.54 603.51C30.76 603.51 31.82 603.51 33.73 603.51C33.73 605.48 33.73 606.58 33.73 606.8C33.73 607.66 34.4 608.35 35.24 608.35C36.07 608.35 36.75 607.66 36.75 606.8Z" id="b1VEwREKmN"></path><path d="M1.21 594.06C1.12 594.31 -1.19 600.44 1.16 609.52C1.34 610.22 1.95 610.68 2.62 610.68C3.39 610.69 4.31 609.84 4.07 608.72C2.01 600.72 3.99 595.29 4.02 595.21C4.33 594.41 3.95 593.51 3.18 593.19C2.4 592.87 1.52 593.26 1.21 594.06Z" id="aWU3VRv5Z"></path><path d="M68.49 609.08C70.83 600 68.53 593.87 68.43 593.62C68.12 592.82 67.24 592.43 66.47 592.75C65.69 593.07 65.32 593.97 65.63 594.77C65.65 594.83 67.66 600.18 65.57 608.28C65.36 609.11 65.83 609.96 66.64 610.18C67.26 610.36 68.17 610.04 68.49 609.08Z" id="i4dwiHojBf"></path><path d="M72.6 590.92C71.92 591.84 71.55 592.35 71.8 593.19C71.95 593.69 72.33 594.08 72.81 594.25C73.01 594.32 73.17 594.37 75.23 594.37C76.03 594.37 77.12 594.36 78.61 594.34C79.45 594.33 80.11 593.63 80.1 592.77C80.09 591.91 79.42 591.23 78.6 591.23C78.59 591.23 78.58 591.23 78.58 591.23C77.77 591.24 76.91 591.25 76.14 591.25C76.68 590.5 77.37 589.52 78.23 588.25C78.93 587.14 79.61 585.97 79.66 584.6C79.66 582.23 77.79 580.3 75.49 580.3C73.5 580.3 71.78 581.76 71.39 583.77C71.23 584.61 71.77 585.43 72.58 585.6C73.4 585.76 74.19 585.21 74.35 584.37C74.51 583.2 76.71 583.03 76.62 584.73C76.53 585.09 76.3 585.65 75.76 586.46C74.11 588.89 73.13 590.21 72.6 590.92Z" id="b9Ho6mjTa"></path><path d="M88.51 629.24C88.51 627.28 88.51 626.19 88.51 625.97C88.51 623.49 86.55 621.48 84.15 621.48C82.1 621.48 65.72 621.48 63.67 621.48C61.27 621.48 59.32 623.49 59.32 625.97C59.32 626.19 59.32 627.27 59.32 629.21L-5.27 629.21C-5.27 596.56 -5.27 578.42 -5.27 574.79C-5.27 573.69 -4.4 572.79 -3.33 572.79C5.35 572.79 74.86 572.79 83.55 572.79C84.62 572.79 85.49 573.69 85.49 574.79C85.49 578.93 85.49 612.05 85.49 616.19C85.49 617.05 86.16 617.75 87 617.75C87.83 617.75 88.51 617.05 88.51 616.19C88.51 612.05 88.51 578.93 88.51 574.79C88.51 571.97 86.28 569.67 83.55 569.67C83.28 569.67 81.94 569.67 79.52 569.67C79.52 567.2 79.52 565.83 79.52 565.56C79.52 564.01 78.94 562.55 77.88 561.46C76.82 560.37 75.41 559.77 73.91 559.77C70.82 559.77 68.3 562.36 68.3 565.56C68.3 565.83 68.3 567.2 68.3 569.67L11.83 569.67C11.83 567.2 11.83 565.83 11.83 565.56C11.83 564.01 11.24 562.55 10.18 561.46C9.13 560.37 7.72 559.77 6.22 559.77C3.12 559.77 0.61 562.36 0.61 565.56C0.61 565.83 0.61 567.2 0.61 569.67C-1.76 569.67 -3.07 569.67 -3.33 569.67C-6.07 569.67 -8.29 571.97 -8.29 574.79C-8.29 578.42 -8.29 596.57 -8.29 629.24C-9.26 629.24 -9.79 629.24 -9.9 629.24C-10.74 629.24 -11.41 629.93 -11.41 630.79C-11.41 631.56 -11.41 637.68 -11.41 638.44C-11.41 639.3 -10.74 640 -9.9 640C-8.99 640 -1.69 640 -0.78 640C0.05 640 0.73 639.3 0.73 638.44C0.73 637.58 0.05 636.88 -0.78 636.88C-1.29 636.88 -3.83 636.88 -8.39 636.88L-8.39 632.35C33.13 632.35 56.2 632.35 60.81 632.35C60.82 632.35 60.82 632.35 60.83 632.35C60.84 632.35 60.84 632.35 60.85 632.35C63.46 632.35 84.37 632.35 86.98 632.35C86.98 632.35 86.99 632.35 87 632.35C87 632.35 87.01 632.35 87.01 632.35C87.12 632.35 87.65 632.35 88.61 632.35L88.61 636.88C39.34 636.88 11.97 636.88 6.5 636.88C5.66 636.88 4.99 637.58 4.99 638.44C4.99 639.3 5.66 640 6.5 640C14.86 640 81.75 640 90.12 640C90.95 640 91.62 639.3 91.62 638.44C91.62 637.68 91.62 631.56 91.62 630.79C91.62 629.93 90.95 629.24 90.12 629.24C89.9 629.24 89.36 629.24 88.51 629.24ZM71.32 565.56C71.32 564.08 72.49 562.88 73.91 562.88C74.61 562.88 75.26 563.16 75.75 563.67C76.24 564.17 76.51 564.84 76.51 565.56C76.51 565.83 76.51 567.2 76.51 569.67L71.32 569.67C71.32 567.48 71.32 566.11 71.32 565.56ZM3.63 565.56C3.63 564.08 4.79 562.88 6.22 562.88C6.91 562.88 7.56 563.16 8.05 563.67C8.54 564.17 8.81 564.84 8.81 565.56C8.81 565.83 8.81 567.2 8.81 569.67L3.63 569.67C3.63 567.48 3.63 566.11 3.63 565.56ZM62.34 625.97C62.34 625.21 62.94 624.59 63.67 624.59C65.72 624.59 82.1 624.59 84.15 624.59C84.89 624.59 85.49 625.21 85.49 625.97C85.49 626.19 85.49 627.27 85.49 629.21L62.34 629.21C62.34 627.48 62.34 626.4 62.34 625.97Z" id="aoNRRuM1X"></path></defs><g><g><g><use xlink:href="#e6nCGc4akI" opacity="1" fill="#f16051" fill-opacity="1"></use><g><use xlink:href="#e6nCGc4akI" opacity="1" fill-opacity="0" stroke="#000000" stroke-width="1" stroke-opacity="0"></use></g></g><g><use xlink:href="#cbr5VAcwKq" opacity="1" fill="#ffffff" fill-opacity="1"></use><g><use xlink:href="#cbr5VAcwKq" opacity="1" fill-opacity="0" stroke="#000000" stroke-width="1" stroke-opacity="0"></use></g></g><g><use xlink:href="#e5vY5WHP5" opacity="1" fill="#193651" fill-opacity="1"></use><g><use xlink:href="#e5vY5WHP5" opacity="1" fill-opacity="0" stroke="#000000" stroke-width="1" stroke-opacity="0"></use></g></g><g><use xlink:href="#aIVebVKj" opacity="1" fill="#e1e6e9" fill-opacity="1"></use><g><use xlink:href="#aIVebVKj" opacity="1" fill-opacity="0" stroke="#000000" stroke-width="1" stroke-opacity="0"></use></g></g><g><use xlink:href="#g3NRQPccix" opacity="1" fill="#ffffff" fill-opacity="1"></use><g><use xlink:href="#g3NRQPccix" opacity="1" fill-opacity="0" stroke="#000000" stroke-width="1" stroke-opacity="0"></use></g></g><g><use xlink:href="#a41VTXUzwt" opacity="1" fill="#193651" fill-opacity="1"></use><g><use xlink:href="#a41VTXUzwt" opacity="1" fill-opacity="0" stroke="#000000" stroke-width="1" stroke-opacity="0"></use></g></g><g><use xlink:href="#eWru5jEle" opacity="1" fill="#ffffff" fill-opacity="1"></use><g><use xlink:href="#eWru5jEle" opacity="1" fill-opacity="0" stroke="#000000" stroke-width="1" stroke-opacity="0"></use></g></g><g><use xlink:href="#c5ShzjtrJ" opacity="1" fill="#193651" fill-opacity="1"></use><g><use xlink:href="#c5ShzjtrJ" opacity="1" fill-opacity="0" stroke="#000000" stroke-width="1" stroke-opacity="0"></use></g></g><g><use xlink:href="#h7iC8YvD2" opacity="1" fill="#4fbf9f" fill-opacity="1"></use><g><use xlink:href="#h7iC8YvD2" opacity="1" fill-opacity="0" stroke="#000000" stroke-width="1" stroke-opacity="0"></use></g></g><g><use xlink:href="#avQmBPxvq" opacity="1" fill="#193651" fill-opacity="1"></use><g><use xlink:href="#avQmBPxvq" opacity="1" fill-opacity="0" stroke="#000000" stroke-width="1" stroke-opacity="0"></use></g></g><g><use xlink:href="#biLvMbqOq" opacity="1" fill="#193651" fill-opacity="1"></use><g><use xlink:href="#biLvMbqOq" opacity="1" fill-opacity="0" stroke="#000000" stroke-width="1" stroke-opacity="0"></use></g></g><g><use xlink:href="#bb2h5WOit" opacity="1" fill="#193651" fill-opacity="1"></use><g><use xlink:href="#bb2h5WOit" opacity="1" fill-opacity="0" stroke="#000000" stroke-width="1" stroke-opacity="0"></use></g></g><g><use xlink:href="#b6ufQGTtg" opacity="1" fill="#193651" fill-opacity="1"></use><g><use xlink:href="#b6ufQGTtg" opacity="1" fill-opacity="0" stroke="#000000" stroke-width="1" stroke-opacity="0"></use></g></g><g><use xlink:href="#b1llRlRjOm" opacity="1" fill="#193651" fill-opacity="1"></use><g><use xlink:href="#b1llRlRjOm" opacity="1" fill-opacity="0" stroke="#000000" stroke-width="1" stroke-opacity="0"></use></g></g><g><use xlink:href="#d60CoNDaMx" opacity="1" fill="#193651" fill-opacity="1"></use><g><use xlink:href="#d60CoNDaMx" opacity="1" fill-opacity="0" stroke="#000000" stroke-width="1" stroke-opacity="0"></use></g></g><g><use xlink:href="#btffo1Vyr" opacity="1" fill="#193651" fill-opacity="1"></use><g><use xlink:href="#btffo1Vyr" opacity="1" fill-opacity="0" stroke="#000000" stroke-width="1" stroke-opacity="0"></use></g></g><g><use xlink:href="#f1txrm9ea4" opacity="1" fill="#193651" fill-opacity="1"></use><g><use xlink:href="#f1txrm9ea4" opacity="1" fill-opacity="0" stroke="#000000" stroke-width="1" stroke-opacity="0"></use></g></g><g><use xlink:href="#bt12lFotd" opacity="1" fill="#725246" fill-opacity="1"></use><g><use xlink:href="#bt12lFotd" opacity="1" fill-opacity="0" stroke="#000000" stroke-width="1" stroke-opacity="0"></use></g></g><g><use xlink:href="#fAIIWGb5S" opacity="1" fill="#5e3e2f" fill-opacity="1"></use><g><use xlink:href="#fAIIWGb5S" opacity="1" fill-opacity="0" stroke="#000000" stroke-width="1" stroke-opacity="0"></use></g></g><g><use xlink:href="#fGsZPO8M" opacity="1" fill="#000000" fill-opacity="1"></use><g><use xlink:href="#fGsZPO8M" opacity="1" fill-opacity="0" stroke="#000000" stroke-width="1" stroke-opacity="0"></use></g></g><g><use xlink:href="#bJeLQkZvd" opacity="1" fill="#bbe2a1" fill-opacity="1"></use><g><use xlink:href="#bJeLQkZvd" opacity="1" fill-opacity="0" stroke="#000000" stroke-width="1" stroke-opacity="0"></use></g></g><g><use xlink:href="#a2seutKsh1" opacity="1" fill="#99bc82" fill-opacity="1"></use><g><use xlink:href="#a2seutKsh1" opacity="1" fill-opacity="0" stroke="#000000" stroke-width="1" stroke-opacity="0"></use></g></g><g><use xlink:href="#d58SODujf" opacity="1" fill="#fedbb0" fill-opacity="1"></use><g><use xlink:href="#d58SODujf" opacity="1" fill-opacity="0" stroke="#000000" stroke-width="1" stroke-opacity="0"></use></g></g><g><use xlink:href="#g14UIfroum" opacity="1" fill="#422618" fill-opacity="1"></use><g><use xlink:href="#g14UIfroum" opacity="1" fill-opacity="0" stroke="#000000" stroke-width="1" stroke-opacity="0"></use></g></g><g><use xlink:href="#b47YbgBZ3Z" opacity="1" fill="#fedbb0" fill-opacity="1"></use><g><use xlink:href="#b47YbgBZ3Z" opacity="1" fill-opacity="0" stroke="#000000" stroke-width="1" stroke-opacity="0"></use></g></g><g><use xlink:href="#c2JTYoB1bL" opacity="1" fill="#422618" fill-opacity="1"></use><g><use xlink:href="#c2JTYoB1bL" opacity="1" fill-opacity="0" stroke="#000000" stroke-width="1" stroke-opacity="0"></use></g></g><g><use xlink:href="#dSs3CDYjc" opacity="1" fill="#422618" fill-opacity="1"></use><g><use xlink:href="#dSs3CDYjc" opacity="1" fill-opacity="0" stroke="#000000" stroke-width="1" stroke-opacity="0"></use></g></g><g><use xlink:href="#d2DkoARaxG" opacity="1" fill="#422618" fill-opacity="1"></use><g><use xlink:href="#d2DkoARaxG" opacity="1" fill-opacity="0" stroke="#000000" stroke-width="1" stroke-opacity="0"></use></g></g><g><use xlink:href="#a13NZoXSac" opacity="1" fill="#fedbb0" fill-opacity="1"></use><g><use xlink:href="#a13NZoXSac" opacity="1" fill-opacity="0" stroke="#000000" stroke-width="1" stroke-opacity="0"></use></g></g><g><use xlink:href="#eBKmgGYkB" opacity="1" fill="#422618" fill-opacity="1"></use><g><use xlink:href="#eBKmgGYkB" opacity="1" fill-opacity="0" stroke="#000000" stroke-width="1" stroke-opacity="0"></use></g></g><g><use xlink:href="#c4cWmkIKFG" opacity="1" fill="#fedbb0" fill-opacity="1"></use><g><use xlink:href="#c4cWmkIKFG" opacity="1" fill-opacity="0" stroke="#000000" stroke-width="1" stroke-opacity="0"></use></g></g><g><use xlink:href="#b2Lead0D1" opacity="1" fill="#422618" fill-opacity="1"></use><g><use xlink:href="#b2Lead0D1" opacity="1" fill-opacity="0" stroke="#000000" stroke-width="1" stroke-opacity="0"></use></g></g><g><use xlink:href="#a2GyMYomF7" opacity="1" fill="#f47da5" fill-opacity="1"></use><g><use xlink:href="#a2GyMYomF7" opacity="1" fill-opacity="0" stroke="#000000" stroke-width="1" stroke-opacity="0"></use></g></g><g><use xlink:href="#azspsnrG2" opacity="1" fill="#422618" fill-opacity="1"></use><g><use xlink:href="#azspsnrG2" opacity="1" fill-opacity="0" stroke="#000000" stroke-width="1" stroke-opacity="0"></use></g></g><g><use xlink:href="#c12zYLNhlX" opacity="1" fill="#8dc8d8" fill-opacity="1"></use><g><use xlink:href="#c12zYLNhlX" opacity="1" fill-opacity="0" stroke="#000000" stroke-width="1" stroke-opacity="0"></use></g></g><g><use xlink:href="#h4hp6ctwI" opacity="1" fill="#422618" fill-opacity="1"></use><g><use xlink:href="#h4hp6ctwI" opacity="1" fill-opacity="0" stroke="#000000" stroke-width="1" stroke-opacity="0"></use></g></g><g><use xlink:href="#c3b7AWRuBN" opacity="1" fill="#fedbb0" fill-opacity="1"></use><g><use xlink:href="#c3b7AWRuBN" opacity="1" fill-opacity="0" stroke="#000000" stroke-width="1" stroke-opacity="0"></use></g></g><g><use xlink:href="#chiezyX" opacity="1" fill="#422618" fill-opacity="1"></use><g><use xlink:href="#chiezyX" opacity="1" fill-opacity="0" stroke="#000000" stroke-width="1" stroke-opacity="0"></use></g></g><g><use xlink:href="#bJd0B0yj" opacity="1" fill="#fedbb0" fill-opacity="1"></use><g><use xlink:href="#bJd0B0yj" opacity="1" fill-opacity="0" stroke="#000000" stroke-width="1" stroke-opacity="0"></use></g></g><g><use xlink:href="#aiWo34fZG" opacity="1" fill="#422618" fill-opacity="1"></use><g><use xlink:href="#aiWo34fZG" opacity="1" fill-opacity="0" stroke="#000000" stroke-width="1" stroke-opacity="0"></use></g></g><g><use xlink:href="#d65niFyBW" opacity="1" fill="#422618" fill-opacity="1"></use><g><use xlink:href="#d65niFyBW" opacity="1" fill-opacity="0" stroke="#000000" stroke-width="1" stroke-opacity="0"></use></g></g><g><use xlink:href="#b5lmZRRvsJ" opacity="1" fill="#422618" fill-opacity="1"></use><g><use xlink:href="#b5lmZRRvsJ" opacity="1" fill-opacity="0" stroke="#000000" stroke-width="1" stroke-opacity="0"></use></g></g><g><use xlink:href="#cT9njkxDu" opacity="1" fill="#422618" fill-opacity="1"></use><g><use xlink:href="#cT9njkxDu" opacity="1" fill-opacity="0" stroke="#000000" stroke-width="1" stroke-opacity="0"></use></g></g><g><use xlink:href="#a17BBvTcW4" opacity="1" fill="#6d4122" fill-opacity="1"></use><g><use xlink:href="#a17BBvTcW4" opacity="1" fill-opacity="0" stroke="#000000" stroke-width="1" stroke-opacity="0"></use></g></g><g><use xlink:href="#a1EW8l4yO" opacity="1" fill="#6d4122" fill-opacity="1"></use><g><use xlink:href="#a1EW8l4yO" opacity="1" fill-opacity="0" stroke="#000000" stroke-width="1" stroke-opacity="0"></use></g></g><g><use xlink:href="#e3PMjxpPp" opacity="1" fill="#91562d" fill-opacity="1"></use><g><use xlink:href="#e3PMjxpPp" opacity="1" fill-opacity="0" stroke="#000000" stroke-width="1" stroke-opacity="0"></use></g></g><g><use xlink:href="#a2K0d8Ft1t" opacity="1" fill="#91562d" fill-opacity="1"></use><g><use xlink:href="#a2K0d8Ft1t" opacity="1" fill-opacity="0" stroke="#000000" stroke-width="1" stroke-opacity="0"></use></g></g><g><use xlink:href="#bIpeUqhum" opacity="1" fill="#6d4122" fill-opacity="1"></use><g><use xlink:href="#bIpeUqhum" opacity="1" fill-opacity="0" stroke="#000000" stroke-width="1" stroke-opacity="0"></use></g></g><g><use xlink:href="#aBVvGJiTU" opacity="1" fill="#91562d" fill-opacity="1"></use><g><use xlink:href="#aBVvGJiTU" opacity="1" fill-opacity="0" stroke="#000000" stroke-width="1" stroke-opacity="0"></use></g></g><g><use xlink:href="#aZnwnrifO" opacity="1" fill="#545c60" fill-opacity="1"></use><g><use xlink:href="#aZnwnrifO" opacity="1" fill-opacity="0" stroke="#000000" stroke-width="1" stroke-opacity="0"></use></g></g><g><use xlink:href="#jakyaIcEB" opacity="1" fill="#7f8e94" fill-opacity="1"></use><g><use xlink:href="#jakyaIcEB" opacity="1" fill-opacity="0" stroke="#000000" stroke-width="1" stroke-opacity="0"></use></g></g><g><use xlink:href="#a1jMEr8eDb" opacity="1" fill="#cfd8dc" fill-opacity="1"></use><g><use xlink:href="#a1jMEr8eDb" opacity="1" fill-opacity="0" stroke="#000000" stroke-width="1" stroke-opacity="0"></use></g></g><g><use xlink:href="#fm5B2JmiD" opacity="1" fill="#f5f5f5" fill-opacity="1"></use><g><use xlink:href="#fm5B2JmiD" opacity="1" fill-opacity="0" stroke="#000000" stroke-width="1" stroke-opacity="0"></use></g></g><g><use xlink:href="#k4xn7jhmn" opacity="1" fill="#c81e1e" fill-opacity="1"></use><g><use xlink:href="#k4xn7jhmn" opacity="1" fill-opacity="0" stroke="#000000" stroke-width="1" stroke-opacity="0"></use></g></g><g><use xlink:href="#c3UjsWLSC" opacity="1" fill="#f44335" fill-opacity="1"></use><g><use xlink:href="#c3UjsWLSC" opacity="1" fill-opacity="0" stroke="#000000" stroke-width="1" stroke-opacity="0"></use></g></g><g><use xlink:href="#asOd9yYwv" opacity="1" fill="#dfc49c" fill-opacity="1"></use><g><use xlink:href="#asOd9yYwv" opacity="1" fill-opacity="0" stroke="#000000" stroke-width="1" stroke-opacity="0"></use></g></g><g><use xlink:href="#eyD1enIhp" opacity="1" fill="#ffe0b2" fill-opacity="1"></use><g><use xlink:href="#eyD1enIhp" opacity="1" fill-opacity="0" stroke="#000000" stroke-width="1" stroke-opacity="0"></use></g></g><g><use xlink:href="#adG8izulr" opacity="1" fill="#37474f" fill-opacity="1"></use><g><use xlink:href="#adG8izulr" opacity="1" fill-opacity="0" stroke="#000000" stroke-width="1" stroke-opacity="0"></use></g></g><g><use xlink:href="#i1VdijkVv7" opacity="1" fill="#607d8b" fill-opacity="1"></use><g><use xlink:href="#i1VdijkVv7" opacity="1" fill-opacity="0" stroke="#000000" stroke-width="1" stroke-opacity="0"></use></g></g><g><use xlink:href="#anPbpgrZO" opacity="1" fill="#000000" fill-opacity="1"></use><g><use xlink:href="#anPbpgrZO" opacity="1" fill-opacity="0" stroke="#000000" stroke-width="1" stroke-opacity="0"></use></g></g><g><use xlink:href="#aKVXomGrJ" opacity="1" fill="#000000" fill-opacity="1"></use><g><use xlink:href="#aKVXomGrJ" opacity="1" fill-opacity="0" stroke="#000000" stroke-width="1" stroke-opacity="0"></use></g></g><g><use xlink:href="#e3jO6zX0hG" opacity="1" fill="#000000" fill-opacity="1"></use><g><use xlink:href="#e3jO6zX0hG" opacity="1" fill-opacity="0" stroke="#000000" stroke-width="1" stroke-opacity="0"></use></g></g><g><use xlink:href="#a1wl2Il6df" opacity="1" fill="#000000" fill-opacity="1"></use><g><use xlink:href="#a1wl2Il6df" opacity="1" fill-opacity="0" stroke="#000000" stroke-width="1" stroke-opacity="0"></use></g></g><g><use xlink:href="#dT5bShGoK" opacity="1" fill="#000000" fill-opacity="1"></use><g><use xlink:href="#dT5bShGoK" opacity="1" fill-opacity="0" stroke="#000000" stroke-width="1" stroke-opacity="0"></use></g></g><g><use xlink:href="#c3j9XV8FUG" opacity="1" fill="#000000" fill-opacity="1"></use><g><use xlink:href="#c3j9XV8FUG" opacity="1" fill-opacity="0" stroke="#000000" stroke-width="1" stroke-opacity="0"></use></g></g><g><use xlink:href="#a3upcYF9e" opacity="1" fill="#000000" fill-opacity="1"></use><g><use xlink:href="#a3upcYF9e" opacity="1" fill-opacity="0" stroke="#000000" stroke-width="1" stroke-opacity="0"></use></g></g><g><use xlink:href="#b28wqoxwkw" opacity="1" fill="#000000" fill-opacity="1"></use><g><use xlink:href="#b28wqoxwkw" opacity="1" fill-opacity="0" stroke="#000000" stroke-width="1" stroke-opacity="0"></use></g></g><g><use xlink:href="#f9cdWRyQt" opacity="1" fill="#000000" fill-opacity="1"></use><g><use xlink:href="#f9cdWRyQt" opacity="1" fill-opacity="0" stroke="#000000" stroke-width="1" stroke-opacity="0"></use></g></g><g><use xlink:href="#a2SY5ghStQ" opacity="1" fill="#000000" fill-opacity="1"></use><g><use xlink:href="#a2SY5ghStQ" opacity="1" fill-opacity="0" stroke="#000000" stroke-width="1" stroke-opacity="0"></use></g></g><g><use xlink:href="#c2oPFInzX1" opacity="1" fill="#000000" fill-opacity="1"></use><g><use xlink:href="#c2oPFInzX1" opacity="1" fill-opacity="0" stroke="#000000" stroke-width="1" stroke-opacity="0"></use></g></g><g><use xlink:href="#g71hyUMOeR" opacity="1" fill="#000000" fill-opacity="1"></use><g><use xlink:href="#g71hyUMOeR" opacity="1" fill-opacity="0" stroke="#000000" stroke-width="1" stroke-opacity="0"></use></g></g><g><use xlink:href="#bMnVYuTIQ" opacity="1" fill="#000000" fill-opacity="1"></use><g><use xlink:href="#bMnVYuTIQ" opacity="1" fill-opacity="0" stroke="#000000" stroke-width="1" stroke-opacity="0"></use></g></g><g><use xlink:href="#a28EZRkbB" opacity="1" fill="#000000" fill-opacity="1"></use><g><use xlink:href="#a28EZRkbB" opacity="1" fill-opacity="0" stroke="#000000" stroke-width="1" stroke-opacity="0"></use></g></g><g><use xlink:href="#bmkwvY3pr" opacity="1" fill="#000000" fill-opacity="1"></use><g><use xlink:href="#bmkwvY3pr" opacity="1" fill-opacity="0" stroke="#000000" stroke-width="1" stroke-opacity="0"></use></g></g><g><use xlink:href="#l2sBFe4iGU" opacity="1" fill="#000000" fill-opacity="1"></use><g><use xlink:href="#l2sBFe4iGU" opacity="1" fill-opacity="0" stroke="#000000" stroke-width="1" stroke-opacity="0"></use></g></g><g><use xlink:href="#e6Jm0DwGjg" opacity="1" fill="#000000" fill-opacity="1"></use><g><use xlink:href="#e6Jm0DwGjg" opacity="1" fill-opacity="0" stroke="#000000" stroke-width="1" stroke-opacity="0"></use></g></g><g><use xlink:href="#apuoEyYpX" opacity="1" fill="#000000" fill-opacity="1"></use><g><use xlink:href="#apuoEyYpX" opacity="1" fill-opacity="0" stroke="#000000" stroke-width="1" stroke-opacity="0"></use></g></g><g><use xlink:href="#f1iZit8wQn" opacity="1" fill="#000000" fill-opacity="1"></use><g><use xlink:href="#f1iZit8wQn" opacity="1" fill-opacity="0" stroke="#000000" stroke-width="1" stroke-opacity="0"></use></g></g><g><use xlink:href="#c2pP0qTUMj" opacity="1" fill="#000000" fill-opacity="1"></use><g><use xlink:href="#c2pP0qTUMj" opacity="1" fill-opacity="0" stroke="#000000" stroke-width="1" stroke-opacity="0"></use></g></g><g><use xlink:href="#b3OJdrqO" opacity="1" fill="#000000" fill-opacity="1"></use><g><use xlink:href="#b3OJdrqO" opacity="1" fill-opacity="0" stroke="#000000" stroke-width="1" stroke-opacity="0"></use></g></g><g><use xlink:href="#b17YljICGo" opacity="1" fill="#000000" fill-opacity="1"></use><g><use xlink:href="#b17YljICGo" opacity="1" fill-opacity="0" stroke="#000000" stroke-width="1" stroke-opacity="0"></use></g></g><g><use xlink:href="#bdFht7xu9" opacity="1" fill="#000000" fill-opacity="1"></use><g><use xlink:href="#bdFht7xu9" opacity="1" fill-opacity="0" stroke="#000000" stroke-width="1" stroke-opacity="0"></use></g></g><g><use xlink:href="#i8Ev5qfs9j" opacity="1" fill="#000000" fill-opacity="1"></use><g><use xlink:href="#i8Ev5qfs9j" opacity="1" fill-opacity="0" stroke="#000000" stroke-width="1" stroke-opacity="0"></use></g></g><g><use xlink:href="#aQpfXdj2C" opacity="1" fill="#000000" fill-opacity="1"></use><g><use xlink:href="#aQpfXdj2C" opacity="1" fill-opacity="0" stroke="#000000" stroke-width="1" stroke-opacity="0"></use></g></g><g><use xlink:href="#dK1Qmerwt" opacity="1" fill="#000000" fill-opacity="1"></use><g><use xlink:href="#dK1Qmerwt" opacity="1" fill-opacity="0" stroke="#000000" stroke-width="1" stroke-opacity="0"></use></g></g><g><use xlink:href="#b3g8XRu0gF" opacity="1" fill="#000000" fill-opacity="1"></use><g><use xlink:href="#b3g8XRu0gF" opacity="1" fill-opacity="0" stroke="#000000" stroke-width="1" stroke-opacity="0"></use></g></g><g><use xlink:href="#c8aQ1Bpb5d" opacity="1" fill="#000000" fill-opacity="1"></use><g><use xlink:href="#c8aQ1Bpb5d" opacity="1" fill-opacity="0" stroke="#000000" stroke-width="1" stroke-opacity="0"></use></g></g><g><use xlink:href="#e1tCQeu67D" opacity="1" fill="#000000" fill-opacity="1"></use><g><use xlink:href="#e1tCQeu67D" opacity="1" fill-opacity="0" stroke="#000000" stroke-width="1" stroke-opacity="0"></use></g></g><g><use xlink:href="#d5o2Y0NPBL" opacity="1" fill="#000000" fill-opacity="1"></use><g><use xlink:href="#d5o2Y0NPBL" opacity="1" fill-opacity="0" stroke="#000000" stroke-width="1" stroke-opacity="0"></use></g></g><g><use xlink:href="#c4tJ8TptN0" opacity="1" fill="#000000" fill-opacity="1"></use><g><use xlink:href="#c4tJ8TptN0" opacity="1" fill-opacity="0" stroke="#000000" stroke-width="1" stroke-opacity="0"></use></g></g><g><use xlink:href="#hhnziu3YG" opacity="1" fill="#000000" fill-opacity="1"></use><g><use xlink:href="#hhnziu3YG" opacity="1" fill-opacity="0" stroke="#000000" stroke-width="1" stroke-opacity="0"></use></g></g><g><use xlink:href="#dSy9Zxe1T" opacity="1" fill="#422618" fill-opacity="1"></use><g><use xlink:href="#dSy9Zxe1T" opacity="1" fill-opacity="0" stroke="#000000" stroke-width="1" stroke-opacity="0"></use></g></g><g><use xlink:href="#bPj17cocX" opacity="1" fill="#b3e59f" fill-opacity="1"></use><g><use xlink:href="#bPj17cocX" opacity="1" fill-opacity="0" stroke="#000000" stroke-width="1" stroke-opacity="0"></use></g></g><g><use xlink:href="#c7VAFMom2" opacity="1" fill="#95d6a4" fill-opacity="1"></use><g><use xlink:href="#c7VAFMom2" opacity="1" fill-opacity="0" stroke="#000000" stroke-width="1" stroke-opacity="0"></use></g></g><g><use xlink:href="#aLeU83bZH" opacity="1" fill="#ffe177" fill-opacity="1"></use><g><use xlink:href="#aLeU83bZH" opacity="1" fill-opacity="0" stroke="#000000" stroke-width="1" stroke-opacity="0"></use></g></g><g><use xlink:href="#b3bjCaXZ4k" opacity="1" fill="#ffd15b" fill-opacity="1"></use><g><use xlink:href="#b3bjCaXZ4k" opacity="1" fill-opacity="0" stroke="#000000" stroke-width="1" stroke-opacity="0"></use></g></g><g><use xlink:href="#c166H9pM6x" opacity="1" fill="#ffe177" fill-opacity="1"></use><g><use xlink:href="#c166H9pM6x" opacity="1" fill-opacity="0" stroke="#000000" stroke-width="1" stroke-opacity="0"></use></g></g><g><use xlink:href="#a2mGUPBWBp" opacity="1" fill="#ffd15b" fill-opacity="1"></use><g><use xlink:href="#a2mGUPBWBp" opacity="1" fill-opacity="0" stroke="#000000" stroke-width="1" stroke-opacity="0"></use></g></g><g><use xlink:href="#atztfl7MD" opacity="1" fill="#000000" fill-opacity="1"></use><g><use xlink:href="#atztfl7MD" opacity="1" fill-opacity="0" stroke="#000000" stroke-width="1" stroke-opacity="0"></use></g></g><g><use xlink:href="#e3X582oQDj" opacity="1" fill="#000000" fill-opacity="1"></use><g><use xlink:href="#e3X582oQDj" opacity="1" fill-opacity="0" stroke="#000000" stroke-width="1" stroke-opacity="0"></use></g></g><g><use xlink:href="#b3LbDxsvh6" opacity="1" fill="#000000" fill-opacity="1"></use><g><use xlink:href="#b3LbDxsvh6" opacity="1" fill-opacity="0" stroke="#000000" stroke-width="1" stroke-opacity="0"></use></g></g><g><use xlink:href="#d2JTG6QfBY" opacity="1" fill="#000000" fill-opacity="1"></use><g><use xlink:href="#d2JTG6QfBY" opacity="1" fill-opacity="0" stroke="#000000" stroke-width="1" stroke-opacity="0"></use></g></g><g><use xlink:href="#e1EF4ud" opacity="1" fill="#000000" fill-opacity="1"></use><g><use xlink:href="#e1EF4ud" opacity="1" fill-opacity="0" stroke="#000000" stroke-width="1" stroke-opacity="0"></use></g></g><g><use xlink:href="#c8BvqztvS" opacity="1" fill="#000000" fill-opacity="1"></use><g><use xlink:href="#c8BvqztvS" opacity="1" fill-opacity="0" stroke="#000000" stroke-width="1" stroke-opacity="0"></use></g></g><g><use xlink:href="#bVDD3gVNi" opacity="1" fill="#000000" fill-opacity="1"></use><g><use xlink:href="#bVDD3gVNi" opacity="1" fill-opacity="0" stroke="#000000" stroke-width="1" stroke-opacity="0"></use></g></g><g><use xlink:href="#b2twwihc8T" opacity="1" fill="#000000" fill-opacity="1"></use><g><use xlink:href="#b2twwihc8T" opacity="1" fill-opacity="0" stroke="#000000" stroke-width="1" stroke-opacity="0"></use></g></g><g><use xlink:href="#j1VBLO8trM" opacity="1" fill="#000000" fill-opacity="1"></use><g><use xlink:href="#j1VBLO8trM" opacity="1" fill-opacity="0" stroke="#000000" stroke-width="1" stroke-opacity="0"></use></g></g><g><use xlink:href="#bQGRxFWSH" opacity="1" fill="#000000" fill-opacity="1"></use><g><use xlink:href="#bQGRxFWSH" opacity="1" fill-opacity="0" stroke="#000000" stroke-width="1" stroke-opacity="0"></use></g></g><g><use xlink:href="#evNLYqThG" opacity="1" fill="#000000" fill-opacity="1"></use><g><use xlink:href="#evNLYqThG" opacity="1" fill-opacity="0" stroke="#000000" stroke-width="1" stroke-opacity="0"></use></g></g><g><use xlink:href="#e2SMhElPKQ" opacity="1" fill="#537983" fill-opacity="1"></use><g><use xlink:href="#e2SMhElPKQ" opacity="1" fill-opacity="0" stroke="#000000" stroke-width="1" stroke-opacity="0"></use></g></g><g><use xlink:href="#d3StmZ6hU" opacity="1" fill="#3e5959" fill-opacity="1"></use><g><use xlink:href="#d3StmZ6hU" opacity="1" fill-opacity="0" stroke="#000000" stroke-width="1" stroke-opacity="0"></use></g></g><g><use xlink:href="#b2DWxQR6oK" opacity="1" fill="#537983" fill-opacity="1"></use><g><use xlink:href="#b2DWxQR6oK" opacity="1" fill-opacity="0" stroke="#000000" stroke-width="1" stroke-opacity="0"></use></g></g><g><use xlink:href="#a2glnxQPL0" opacity="1" fill="#3e5959" fill-opacity="1"></use><g><use xlink:href="#a2glnxQPL0" opacity="1" fill-opacity="0" stroke="#000000" stroke-width="1" stroke-opacity="0"></use></g></g><g><use xlink:href="#a5LQVyafO9" opacity="1" fill="#0ed290" fill-opacity="1"></use><g><use xlink:href="#a5LQVyafO9" opacity="1" fill-opacity="0" stroke="#000000" stroke-width="1" stroke-opacity="0"></use></g></g><g><use xlink:href="#e3KDTIrfSR" opacity="1" fill="#00c285" fill-opacity="1"></use><g><use xlink:href="#e3KDTIrfSR" opacity="1" fill-opacity="0" stroke="#000000" stroke-width="1" stroke-opacity="0"></use></g></g><g><use xlink:href="#buK8q4shj" opacity="1" fill="#6c7fd8" fill-opacity="1"></use><g><use xlink:href="#buK8q4shj" opacity="1" fill-opacity="0" stroke="#000000" stroke-width="1" stroke-opacity="0"></use></g></g><g><use xlink:href="#cmOlVOGXW" opacity="1" fill="#4f66d0" fill-opacity="1"></use><g><use xlink:href="#cmOlVOGXW" opacity="1" fill-opacity="0" stroke="#000000" stroke-width="1" stroke-opacity="0"></use></g></g><g><use xlink:href="#a6qGBY4XDO" opacity="1" fill="#ffcebf" fill-opacity="1"></use><g><use xlink:href="#a6qGBY4XDO" opacity="1" fill-opacity="0" stroke="#000000" stroke-width="1" stroke-opacity="0"></use></g></g><g><use xlink:href="#d1uocJ71RK" opacity="1" fill="#ffb09e" fill-opacity="1"></use><g><use xlink:href="#d1uocJ71RK" opacity="1" fill-opacity="0" stroke="#000000" stroke-width="1" stroke-opacity="0"></use></g></g><g><use xlink:href="#a3MRTF3T1u" opacity="1" fill="#000000" fill-opacity="1"></use><g><use xlink:href="#a3MRTF3T1u" opacity="1" fill-opacity="0" stroke="#000000" stroke-width="1" stroke-opacity="0"></use></g></g><g><use xlink:href="#bSE7uHQYB" opacity="1" fill="#000000" fill-opacity="1"></use><g><use xlink:href="#bSE7uHQYB" opacity="1" fill-opacity="0" stroke="#000000" stroke-width="1" stroke-opacity="0"></use></g></g><g><use xlink:href="#b1VEwREKmN" opacity="1" fill="#000000" fill-opacity="1"></use><g><use xlink:href="#b1VEwREKmN" opacity="1" fill-opacity="0" stroke="#000000" stroke-width="1" stroke-opacity="0"></use></g></g><g><use xlink:href="#aWU3VRv5Z" opacity="1" fill="#000000" fill-opacity="1"></use><g><use xlink:href="#aWU3VRv5Z" opacity="1" fill-opacity="0" stroke="#000000" stroke-width="1" stroke-opacity="0"></use></g></g><g><use xlink:href="#i4dwiHojBf" opacity="1" fill="#000000" fill-opacity="1"></use><g><use xlink:href="#i4dwiHojBf" opacity="1" fill-opacity="0" stroke="#000000" stroke-width="1" stroke-opacity="0"></use></g></g><g><use xlink:href="#b9Ho6mjTa" opacity="1" fill="#000000" fill-opacity="1"></use><g><use xlink:href="#b9Ho6mjTa" opacity="1" fill-opacity="0" stroke="#000000" stroke-width="1" stroke-opacity="0"></use></g></g><g><use xlink:href="#aoNRRuM1X" opacity="1" fill="#000000" fill-opacity="1"></use><g><use xlink:href="#aoNRRuM1X" opacity="1" fill-opacity="0" stroke="#000000" stroke-width="1" stroke-opacity="0"></use></g></g></g></g></svg>